<mxfile scale="1" border="20" host="app.diagrams.net" modified="2023-02-17T01:01:06.588Z" agent="5.0 (Macintosh; Intel Mac OS X 10_15_7) AppleWebKit/605.1.15 (KHTML, like Gecko) Version/16.3 Safari/605.1.15" etag="AntQTzjqX-6w4VBMNQ0M" version="20.8.20" type="github">
  <diagram id="FZV0TT7mdOG5j9b1XxxK" name="istio-ports-components.drawio.svg">
    <mxGraphModel dx="3046" dy="1861" grid="1" gridSize="10" guides="1" tooltips="1" connect="1" arrows="1" fold="1" page="1" pageScale="1" pageWidth="850" pageHeight="1100" background="#FFFFFF" math="0" shadow="0">
      <root>
        <mxCell id="0" />
        <mxCell id="1" parent="0" />
        <mxCell id="2" value="&lt;b&gt;APP Pod&lt;br&gt;&lt;/b&gt;(192.175.226.153 / $ETH0_IP)" style="rounded=1;whiteSpace=wrap;html=1;strokeWidth=1;fillColor=#d5e8d4;strokeColor=#82b366;labelPosition=center;verticalLabelPosition=bottom;align=center;verticalAlign=top;spacingRight=100;" parent="1" vertex="1">
          <mxGeometry x="-220" y="510" width="1160" height="690" as="geometry" />
        </mxCell>
        <mxCell id="3" value="istiod" style="rounded=1;whiteSpace=wrap;html=1;strokeWidth=1;fillColor=#d5e8d4;strokeColor=#82b366;labelPosition=center;verticalLabelPosition=bottom;align=center;verticalAlign=top;" parent="1" vertex="1">
          <mxGeometry x="-1010" y="680" width="420" height="360" as="geometry" />
        </mxCell>
        <mxCell id="4" value="&lt;b&gt;istio-proxy&lt;/b&gt;&lt;br&gt;sidecar container" style="rounded=1;whiteSpace=wrap;html=1;strokeWidth=1;fillColor=#ffe6cc;strokeColor=#d79b00;labelPosition=center;verticalLabelPosition=bottom;align=center;verticalAlign=top;dashed=1;" parent="1" vertex="1">
          <mxGeometry x="-160" y="520" width="820" height="520" as="geometry" />
        </mxCell>
        <mxCell id="5" value="" style="rounded=0;orthogonalLoop=1;jettySize=auto;html=1;endArrow=none;endFill=0;sketch=0;sourcePerimeterSpacing=0;targetPerimeterSpacing=0;strokeWidth=3;strokeColor=#00CC00;" parent="1" target="6" edge="1">
          <mxGeometry relative="1" as="geometry">
            <mxPoint x="710" y="1086.521739130435" as="sourcePoint" />
          </mxGeometry>
        </mxCell>
        <UserObject label="app port&lt;br&gt;(8080)" tooltip="Added the HTTP endpoint localhost:15004/debug/&lt;typeurl&gt; to the Istio sidecar agent. GET requests to that URL will be resolved by sending an xDS discovery “event” to istiod. This can be disabled by setting the following in the Istio Operator: meshConfig.defaultConfig.proxyMetadata.PROXY_XDS_DEBUG_VIA_AGENT=false. (Issue #22274)" id="6">
          <mxCell style="ellipse;whiteSpace=wrap;html=1;align=center;aspect=fixed;resizable=1;points=[];outlineConnect=0;sketch=0;resizeWidth=1;resizeHeight=1;labelPosition=center;verticalLabelPosition=bottom;verticalAlign=top;labelBackgroundColor=default;strokeWidth=3;strokeColor=#00CC00;" parent="1" vertex="1">
            <mxGeometry x="640" y="1030" width="30" height="30" as="geometry" />
          </mxCell>
        </UserObject>
        <mxCell id="7" value="" style="rounded=1;whiteSpace=wrap;html=1;strokeWidth=1;fillColor=#d5e8d4;strokeColor=#82b366;labelPosition=center;verticalLabelPosition=bottom;align=center;verticalAlign=top;" parent="1" vertex="1">
          <mxGeometry x="-730" y="1220" width="200" height="140" as="geometry" />
        </mxCell>
        <mxCell id="8" value="&lt;span style=&quot;font-family: &amp;#34;courier new&amp;#34; ; font-size: 11px ; text-align: left&quot;&gt;192.175.226.179&lt;/span&gt;" style="rounded=1;whiteSpace=wrap;html=1;strokeWidth=1;fillColor=#d5e8d4;strokeColor=#82b366;labelPosition=center;verticalLabelPosition=top;align=center;verticalAlign=bottom;" parent="1" vertex="1">
          <mxGeometry x="270" y="160" width="200" height="140" as="geometry" />
        </mxCell>
        <mxCell id="9" value="&lt;span style=&quot;font-family: &amp;#34;courier new&amp;#34; ; font-size: 11px ; text-align: left&quot;&gt;192.163.30.16:6380&lt;/span&gt;" style="rounded=1;whiteSpace=wrap;html=1;strokeWidth=1;fillColor=#d5e8d4;strokeColor=#82b366;labelPosition=center;verticalLabelPosition=bottom;align=center;verticalAlign=top;" parent="1" vertex="1">
          <mxGeometry x="310" y="1340" width="200" height="140" as="geometry" />
        </mxCell>
        <mxCell id="10" value="app container" style="rounded=1;whiteSpace=wrap;html=1;strokeWidth=1;fillColor=#F7FBF7;strokeColor=none;labelPosition=center;verticalLabelPosition=bottom;align=center;verticalAlign=top;opacity=30;dashed=1;" parent="1" vertex="1">
          <mxGeometry x="670" y="1040" width="190" height="130" as="geometry" />
        </mxCell>
        <mxCell id="12" value="envoy" style="shape=cube;whiteSpace=wrap;html=1;boundedLbl=1;backgroundOutline=1;darkOpacity=0.05;darkOpacity2=0.1;fillColor=#e1d5e7;strokeColor=#9673a6;" parent="1" vertex="1">
          <mxGeometry x="340" y="650" width="120" height="80" as="geometry" />
        </mxCell>
        <mxCell id="13" value="" style="rounded=0;orthogonalLoop=1;jettySize=auto;html=1;endArrow=none;endFill=0;sketch=0;sourcePerimeterSpacing=0;targetPerimeterSpacing=0;strokeWidth=3;strokeColor=#B266FF;" parent="1" source="12" target="14" edge="1">
          <mxGeometry relative="1" as="geometry">
            <mxPoint y="500" as="sourcePoint" />
          </mxGeometry>
        </mxCell>
        <mxCell id="14" value="15001&lt;br&gt;virtualOutbound&lt;br&gt;listener" style="ellipse;whiteSpace=wrap;html=1;align=center;aspect=fixed;resizable=1;points=[];outlineConnect=0;sketch=0;resizeWidth=1;resizeHeight=1;labelPosition=center;verticalLabelPosition=bottom;verticalAlign=top;strokeWidth=3;strokeColor=#B266FF;" parent="1" vertex="1">
          <mxGeometry x="550" y="630" width="30" height="30" as="geometry" />
        </mxCell>
        <mxCell id="16" value="" style="rounded=0;orthogonalLoop=1;jettySize=auto;html=1;endArrow=none;endFill=0;sketch=0;sourcePerimeterSpacing=0;targetPerimeterSpacing=0;strokeWidth=3;strokeColor=#00CC00;" parent="1" source="12" target="17" edge="1">
          <mxGeometry relative="1" as="geometry">
            <mxPoint x="330" y="645.4545454545455" as="sourcePoint" />
          </mxGeometry>
        </mxCell>
        <mxCell id="17" value="15006&lt;br&gt;virtualInbound&lt;br&gt;listener" style="ellipse;whiteSpace=wrap;html=1;align=center;aspect=fixed;resizable=1;points=[];outlineConnect=0;sketch=0;resizeWidth=1;resizeHeight=1;labelPosition=center;verticalLabelPosition=bottom;verticalAlign=top;strokeWidth=3;strokeColor=#00CC00;" parent="1" vertex="1">
          <mxGeometry x="240" y="580" width="30" height="30" as="geometry" />
        </mxCell>
        <mxCell id="18" value="" style="rounded=0;orthogonalLoop=1;jettySize=auto;html=1;endArrow=none;endFill=0;sketch=0;sourcePerimeterSpacing=0;targetPerimeterSpacing=0;" parent="1" source="22" target="19" edge="1">
          <mxGeometry relative="1" as="geometry">
            <mxPoint x="350" y="662.7027027027025" as="sourcePoint" />
          </mxGeometry>
        </mxCell>
        <mxCell id="19" value="/etc/istio/proxy/XDS" style="ellipse;whiteSpace=wrap;html=1;align=center;aspect=fixed;resizable=1;points=[];outlineConnect=0;sketch=0;resizeWidth=1;resizeHeight=1;labelPosition=center;verticalLabelPosition=bottom;verticalAlign=top;" parent="1" vertex="1">
          <mxGeometry x="50" y="690" width="30" height="30" as="geometry" />
        </mxCell>
        <mxCell id="20" value="" style="rounded=0;orthogonalLoop=1;jettySize=auto;html=1;endArrow=none;endFill=0;sketch=0;sourcePerimeterSpacing=0;targetPerimeterSpacing=0;" parent="1" source="22" target="21" edge="1">
          <mxGeometry relative="1" as="geometry">
            <mxPoint x="350" y="708.5714285714284" as="sourcePoint" />
          </mxGeometry>
        </mxCell>
        <mxCell id="21" value="/etc/istio/proxy/SDS" style="ellipse;whiteSpace=wrap;html=1;align=center;aspect=fixed;resizable=1;points=[];outlineConnect=0;sketch=0;resizeWidth=1;resizeHeight=1;labelPosition=center;verticalLabelPosition=bottom;verticalAlign=top;" parent="1" vertex="1">
          <mxGeometry x="110" y="760" width="30" height="30" as="geometry" />
        </mxCell>
        <mxCell id="22" value="pilot-agent" style="shape=cube;whiteSpace=wrap;html=1;boundedLbl=1;backgroundOutline=1;darkOpacity=0.05;darkOpacity2=0.1;fillColor=#dae8fc;strokeColor=#6c8ebf;" parent="1" vertex="1">
          <mxGeometry x="-90" y="800" width="120" height="80" as="geometry" />
        </mxCell>
        <mxCell id="23" value="" style="endArrow=classic;html=1;rounded=0;jumpStyle=arc;strokeColor=#FF66FF;startArrow=classic;startFill=1;" parent="1" source="12" target="21" edge="1">
          <mxGeometry width="50" height="50" relative="1" as="geometry">
            <mxPoint x="250" y="1000" as="sourcePoint" />
            <mxPoint x="-70" y="550" as="targetPoint" />
          </mxGeometry>
        </mxCell>
        <mxCell id="24" value="" style="endArrow=classic;html=1;rounded=0;jumpStyle=arc;strokeColor=#FF66FF;startArrow=classic;startFill=1;" parent="1" source="12" target="19" edge="1">
          <mxGeometry width="50" height="50" relative="1" as="geometry">
            <mxPoint x="-10" y="690" as="sourcePoint" />
            <mxPoint x="260.0405551546055" y="833.8977251166548" as="targetPoint" />
          </mxGeometry>
        </mxCell>
        <mxCell id="25" style="edgeStyle=none;rounded=0;jumpStyle=arc;orthogonalLoop=1;jettySize=auto;html=1;strokeWidth=3;strokeColor=#00CC00;startArrow=none;" parent="1" source="115" target="17" edge="1">
          <mxGeometry relative="1" as="geometry" />
        </mxCell>
        <mxCell id="26" value="netfilter&lt;br&gt;&lt;i&gt;(iptable&lt;/i&gt;&lt;i&gt;redirect&lt;/i&gt;&lt;i&gt;)&lt;/i&gt;" style="shape=cube;whiteSpace=wrap;html=1;boundedLbl=1;backgroundOutline=1;darkOpacity=0.05;darkOpacity2=0.1;fillColor=#fff2cc;strokeColor=#d6b656;" parent="1" vertex="1">
          <mxGeometry x="710" y="605" width="120" height="80" as="geometry" />
        </mxCell>
        <mxCell id="27" value="app&lt;br&gt;(java)" style="shape=cube;whiteSpace=wrap;html=1;boundedLbl=1;backgroundOutline=1;darkOpacity=0.05;darkOpacity2=0.1;" parent="1" vertex="1">
          <mxGeometry x="710" y="1070" width="120" height="80" as="geometry" />
        </mxCell>
        <mxCell id="28" value="" style="endArrow=classic;html=1;rounded=0;jumpStyle=arc;strokeWidth=3;strokeColor=#00CC00;startArrow=none;" parent="1" source="124" target="6" edge="1">
          <mxGeometry width="50" height="50" relative="1" as="geometry">
            <mxPoint x="-20" y="821.8367346938776" as="sourcePoint" />
            <mxPoint x="646.5653496787554" y="1052.5961024687576" as="targetPoint" />
          </mxGeometry>
        </mxCell>
        <mxCell id="29" value="" style="endArrow=classic;html=1;rounded=0;jumpStyle=arc;strokeWidth=3;strokeColor=#B266FF;startArrow=none;" parent="1" source="108" target="26" edge="1">
          <mxGeometry width="50" height="50" relative="1" as="geometry">
            <mxPoint x="391.3333333333335" y="660" as="sourcePoint" />
            <mxPoint x="288.6666666666665" y="440" as="targetPoint" />
          </mxGeometry>
        </mxCell>
        <mxCell id="30" value="" style="endArrow=classic;html=1;rounded=0;jumpStyle=arc;strokeWidth=3;strokeColor=#B266FF;startArrow=none;" parent="1" source="110" target="14" edge="1">
          <mxGeometry width="50" height="50" relative="1" as="geometry">
            <mxPoint x="330" y="401.4634146341464" as="sourcePoint" />
            <mxPoint x="470" y="510" as="targetPoint" />
          </mxGeometry>
        </mxCell>
        <mxCell id="31" value="netfilter&lt;br&gt;&lt;i&gt;(iptable redirect)&lt;/i&gt;" style="shape=cube;whiteSpace=wrap;html=1;boundedLbl=1;backgroundOutline=1;darkOpacity=0.05;darkOpacity2=0.1;fillColor=#fff2cc;strokeColor=#d6b656;" parent="1" vertex="1">
          <mxGeometry x="-60" y="555" width="120" height="80" as="geometry" />
        </mxCell>
        <mxCell id="32" value="inbound" style="endArrow=classic;html=1;rounded=0;jumpStyle=arc;strokeWidth=3;strokeColor=#00CC00;startArrow=none;" parent="1" source="132" target="76" edge="1">
          <mxGeometry width="50" height="50" relative="1" as="geometry">
            <mxPoint x="-230" y="550" as="sourcePoint" />
            <mxPoint x="628.0482468526548" y="650.3129924372115" as="targetPoint" />
          </mxGeometry>
        </mxCell>
        <mxCell id="33" value="" style="endArrow=classic;html=1;rounded=0;jumpStyle=arc;strokeWidth=3;edgeStyle=orthogonalEdgeStyle;strokeColor=#B266FF;startArrow=none;" parent="1" source="106" target="36" edge="1">
          <mxGeometry x="-0.1892" width="50" height="50" relative="1" as="geometry">
            <mxPoint x="-220" y="560" as="sourcePoint" />
            <mxPoint x="790" y="830" as="targetPoint" />
            <Array as="points">
              <mxPoint x="420" y="1210" />
              <mxPoint x="420" y="1210" />
            </Array>
            <mxPoint as="offset" />
          </mxGeometry>
        </mxCell>
        <mxCell id="34" value="istiod" style="shape=cube;whiteSpace=wrap;html=1;boundedLbl=1;backgroundOutline=1;darkOpacity=0.05;darkOpacity2=0.1;fillColor=#dae8fc;strokeColor=#6c8ebf;" parent="1" vertex="1">
          <mxGeometry x="-840" y="820" width="120" height="80" as="geometry" />
        </mxCell>
        <mxCell id="35" value="XDS &amp;amp; CA service" style="endArrow=classic;html=1;rounded=0;jumpStyle=arc;startArrow=classic;startFill=1;fillColor=#e1d5e7;strokeColor=#FF66FF;" parent="1" source="22" target="40" edge="1">
          <mxGeometry width="50" height="50" relative="1" as="geometry">
            <mxPoint x="40" y="846.9491525423728" as="sourcePoint" />
            <mxPoint x="260.01935345937227" y="835.7617277902013" as="targetPoint" />
          </mxGeometry>
        </mxCell>
        <mxCell id="36" value="Upstream Service" style="shape=cube;whiteSpace=wrap;html=1;boundedLbl=1;backgroundOutline=1;darkOpacity=0.05;darkOpacity2=0.1;fillColor=#e1d5e7;strokeColor=#9673a6;" parent="1" vertex="1">
          <mxGeometry x="350" y="1370" width="120" height="80" as="geometry" />
        </mxCell>
        <mxCell id="37" value="Downstream Service" style="shape=cube;whiteSpace=wrap;html=1;boundedLbl=1;backgroundOutline=1;darkOpacity=0.05;darkOpacity2=0.1;fillColor=#e1d5e7;strokeColor=#9673a6;" parent="1" vertex="1">
          <mxGeometry x="305" y="190" width="120" height="80" as="geometry" />
        </mxCell>
        <mxCell id="39" value="" style="rounded=1;orthogonalLoop=1;jettySize=auto;html=1;endArrow=none;endFill=0;sketch=0;sourcePerimeterSpacing=0;targetPerimeterSpacing=0;" parent="1" source="34" target="40" edge="1">
          <mxGeometry relative="1" as="geometry">
            <mxPoint x="-575" y="1072.702702702703" as="sourcePoint" />
          </mxGeometry>
        </mxCell>
        <mxCell id="40" value="15012&lt;br&gt;GRPC&lt;br&gt;same as 15010 but mTLS" style="ellipse;whiteSpace=wrap;html=1;align=center;aspect=fixed;resizable=1;points=[];outlineConnect=0;sketch=0;resizeWidth=1;resizeHeight=1;labelPosition=center;verticalLabelPosition=bottom;verticalAlign=top;" parent="1" vertex="1">
          <mxGeometry x="-570" y="830" width="30" height="30" as="geometry" />
        </mxCell>
        <mxCell id="41" value="" style="rounded=0;orthogonalLoop=1;jettySize=auto;html=1;endArrow=none;endFill=0;sketch=0;sourcePerimeterSpacing=0;targetPerimeterSpacing=0;" parent="1" source="22" target="42" edge="1">
          <mxGeometry relative="1" as="geometry">
            <mxPoint x="20" y="926.9491525423728" as="sourcePoint" />
          </mxGeometry>
        </mxCell>
        <mxCell id="42" value="15020" style="ellipse;whiteSpace=wrap;html=1;align=center;aspect=fixed;resizable=1;points=[];outlineConnect=0;sketch=0;resizeWidth=1;resizeHeight=1;labelPosition=center;verticalLabelPosition=bottom;verticalAlign=top;" parent="1" vertex="1">
          <mxGeometry x="-20" y="950" width="30" height="30" as="geometry" />
        </mxCell>
        <mxCell id="43" value="readiness probe" style="endArrow=classic;html=1;rounded=0;jumpStyle=arc;edgeStyle=orthogonalEdgeStyle;" parent="1" source="12" target="42" edge="1">
          <mxGeometry x="0.5219" width="50" height="50" relative="1" as="geometry">
            <mxPoint x="370" y="740" as="sourcePoint" />
            <mxPoint x="285.6066017177982" y="824.3933982822018" as="targetPoint" />
            <mxPoint as="offset" />
            <Array as="points">
              <mxPoint x="400" y="965" />
            </Array>
          </mxGeometry>
        </mxCell>
        <UserObject label="&lt;div&gt;XDS and CA services&lt;br&gt;&lt;/div&gt;&lt;div&gt;&lt;br&gt;&lt;/div&gt;&lt;div&gt;&lt;i style=&quot;color: rgb(0 , 0 , 0) ; text-align: center&quot;&gt;Exposes the xDS API and issues plain text certificates&lt;/i&gt;&lt;br&gt;&lt;/div&gt;" id="44">
          <mxCell style="shape=note;strokeWidth=2;fontSize=12;size=20;whiteSpace=wrap;html=1;fillColor=#fff2cc;strokeColor=#d6b656;fontColor=#666600;align=left;fontStyle=0;shadow=1;sketch=0;" parent="1" vertex="1">
            <mxGeometry x="-1270" y="1180" width="450" height="60" as="geometry" />
          </mxCell>
        </UserObject>
        <mxCell id="45" value="" style="endArrow=none;dashed=1;html=1;dashPattern=1 3;strokeWidth=2;rounded=0;fontSize=12;" parent="1" source="44" target="69" edge="1">
          <mxGeometry width="50" height="50" relative="1" as="geometry">
            <mxPoint x="90" y="1395" as="sourcePoint" />
            <mxPoint x="-880" y="1345.9880239520953" as="targetPoint" />
          </mxGeometry>
        </mxCell>
        <mxCell id="46" value="prometheus" style="shape=cube;whiteSpace=wrap;html=1;boundedLbl=1;backgroundOutline=1;darkOpacity=0.05;darkOpacity2=0.1;fillColor=#3399FF;strokeColor=#006EAF;fontColor=#ffffff;" parent="1" vertex="1">
          <mxGeometry x="-690" y="1250" width="120" height="80" as="geometry" />
        </mxCell>
        <mxCell id="47" value="scrape" style="endArrow=classic;html=1;rounded=0;jumpStyle=arc;strokeColor=#3399FF;" parent="1" source="46" target="42" edge="1">
          <mxGeometry width="50" height="50" relative="1" as="geometry">
            <mxPoint x="-80.00000000000045" y="867.309627712365" as="sourcePoint" />
            <mxPoint x="-525.5833110094718" y="995.8576481859795" as="targetPoint" />
          </mxGeometry>
        </mxCell>
        <mxCell id="48" value="scrape mettrics" style="endArrow=classic;html=1;rounded=0;jumpStyle=arc;edgeStyle=orthogonalEdgeStyle;strokeColor=#3399FF;dashed=1;" parent="1" source="22" target="27" edge="1">
          <mxGeometry x="0.2577" width="50" height="50" relative="1" as="geometry">
            <mxPoint x="391.26625336386905" y="740" as="sourcePoint" />
            <mxPoint x="231.36546935757178" y="1081.4176290777928" as="targetPoint" />
            <mxPoint x="1" as="offset" />
            <Array as="points">
              <mxPoint x="60" y="840" />
              <mxPoint x="60" y="1130" />
            </Array>
          </mxGeometry>
        </mxCell>
        <mxCell id="49" value="" style="rounded=0;orthogonalLoop=1;jettySize=auto;html=1;endArrow=none;endFill=0;sketch=0;sourcePerimeterSpacing=0;targetPerimeterSpacing=0;" parent="1" source="22" target="50" edge="1">
          <mxGeometry relative="1" as="geometry">
            <mxPoint x="-350" y="490" as="sourcePoint" />
          </mxGeometry>
        </mxCell>
        <UserObject label="15004/debug/" link="https://istio.io/latest/news/releases/1.11.x/announcing-1.11/change-notes/#:~:text=Added%20the%20HTTP%20endpoint%20localhost%3A15004/debug/%3Ctypeurl%3E" tooltip="Added the HTTP endpoint localhost:15004/debug/&lt;typeurl&gt; to the Istio sidecar agent. GET requests to that URL will be resolved by sending an xDS discovery “event” to istiod. This can be disabled by setting the following in the Istio Operator: meshConfig.defaultConfig.proxyMetadata.PROXY_XDS_DEBUG_VIA_AGENT=false. (Issue #22274)" id="50">
          <mxCell style="ellipse;whiteSpace=wrap;html=1;align=center;aspect=fixed;resizable=1;points=[];outlineConnect=0;sketch=0;resizeWidth=1;resizeHeight=1;labelPosition=center;verticalLabelPosition=bottom;verticalAlign=top;" parent="1" vertex="1">
            <mxGeometry x="-130" y="730" width="30" height="30" as="geometry" />
          </mxCell>
        </UserObject>
        <UserObject label="&lt;div&gt;With the pilot-agent proxy istiod debug endpoint on port 8080, you can access localhost’s port 15004 in the data plane Pod to query the grid information&lt;span&gt;	&lt;/span&gt;&lt;br&gt;&lt;/div&gt;&lt;div&gt;&lt;br&gt;&lt;/div&gt;&lt;div&gt;See: &lt;a href=&quot;https://github.com/istio/istio/blob/master/pilot/pkg/xds/debug.go#:~:text=internalMux%2C%20%22-,/debug/ecdsz,-%22%2C%20%22Status&quot;&gt;github docs&lt;/a&gt;&lt;/div&gt;" link="https://www.tetrate.io/blog/istio-component-ports-and-functions-in-detail/#:~:text=With%20the%20pilot%2Dagent%20proxy%20istiod%20debug%20endpoint%20on%20port%208080%2C%20you%20can%20access%20localhost%E2%80%99s%20port%2015004%20in%20the%20data%20plane%20Pod%20to%20query%20the%20grid%20information" id="51">
          <mxCell style="shape=note;strokeWidth=2;fontSize=12;size=20;whiteSpace=wrap;html=1;fillColor=#fff2cc;strokeColor=#d6b656;fontColor=#666600;align=left;fontStyle=0;shadow=1;sketch=0;" parent="1" vertex="1">
            <mxGeometry x="-630" y="605" width="450" height="60" as="geometry" />
          </mxCell>
        </UserObject>
        <mxCell id="52" value="" style="endArrow=none;dashed=1;html=1;dashPattern=1 3;strokeWidth=2;rounded=0;fontSize=12;" parent="1" source="51" target="50" edge="1">
          <mxGeometry width="50" height="50" relative="1" as="geometry">
            <mxPoint x="-323.37" y="545" as="sourcePoint" />
            <mxPoint x="-909.9970082344345" y="176.79434259056916" as="targetPoint" />
          </mxGeometry>
        </mxCell>
        <UserObject label="&lt;ol&gt;&lt;br&gt;&lt;li style=&quot;font-weight: 400&quot;&gt;&lt;span style=&quot;font-weight: 400&quot;&gt;Aggregating metrics: You can query port 15090 for Envoy’s metrics, or you can configure it to query the application’s metrics, aggregating Envoy, application, and its own metrics for Prometheus to collect. The corresponding debug endpoint is &lt;/span&gt;&lt;span style=&quot;font-weight: 400&quot;&gt;/stats/prometheus&lt;/span&gt;&lt;span style=&quot;font-weight: 400&quot;&gt;.&lt;/span&gt;&lt;/li&gt;&lt;br&gt;&lt;li style=&quot;font-weight: 400&quot;&gt;&lt;span style=&quot;font-weight: 400&quot;&gt;Performing health checks on Envoy and DNS agent: the corresponding debug endpoints are &lt;/span&gt;&lt;span style=&quot;font-weight: 400&quot;&gt;/healthz/ready&lt;/span&gt;&lt;span style=&quot;font-weight: 400&quot;&gt; and &lt;/span&gt;&lt;span style=&quot;font-weight: 400&quot;&gt;/app-health&lt;/span&gt;&lt;span style=&quot;font-weight: 400&quot;&gt;.&lt;/span&gt;&lt;/li&gt;&lt;br&gt;&lt;li style=&quot;font-weight: 400&quot;&gt;&lt;span style=&quot;font-weight: 400&quot;&gt;Debugging &lt;/span&gt;&lt;span style=&quot;font-weight: 400&quot;&gt;pilot-agent&lt;/span&gt;&lt;span style=&quot;font-weight: 400&quot;&gt; processes: the corresponding debug endpoints are &lt;/span&gt;&lt;span style=&quot;font-weight: 400&quot;&gt;/quitquitquit&lt;/span&gt;&lt;span style=&quot;font-weight: 400&quot;&gt;, &lt;/span&gt;&lt;span style=&quot;font-weight: 400&quot;&gt;debug/ndsz&lt;/span&gt;&lt;span style=&quot;font-weight: 400&quot;&gt; and &lt;/span&gt;&lt;span style=&quot;font-weight: 400&quot;&gt;/debug/pprof&lt;/span&gt;&lt;span style=&quot;font-weight: 400&quot;&gt;.&lt;/span&gt;&lt;/li&gt;&lt;/ol&gt;" link="https://www.tetrate.io/blog/istio-component-ports-and-functions-in-detail/#:~:text=efficient%20and%20intuitive.-,15020,-Port%2015020%20has" id="53">
          <mxCell style="shape=note;strokeWidth=2;fontSize=12;size=20;whiteSpace=wrap;html=1;fillColor=#fff2cc;strokeColor=#d6b656;fontColor=#666600;align=left;fontStyle=0;shadow=1;sketch=0;" parent="1" vertex="1">
            <mxGeometry x="-390" y="1260" width="550" height="220" as="geometry" />
          </mxCell>
        </UserObject>
        <mxCell id="54" value="" style="endArrow=none;dashed=1;html=1;dashPattern=1 3;strokeWidth=2;rounded=0;fontSize=12;" parent="1" source="53" target="42" edge="1">
          <mxGeometry width="50" height="50" relative="1" as="geometry">
            <mxPoint x="33.14999999999998" y="1505" as="sourcePoint" />
            <mxPoint x="139.99668080603897" y="1635.3972340050327" as="targetPoint" />
          </mxGeometry>
        </mxCell>
        <mxCell id="55" value="15090" style="ellipse;whiteSpace=wrap;html=1;align=center;aspect=fixed;resizable=1;points=[];outlineConnect=0;sketch=0;resizeWidth=1;resizeHeight=1;labelPosition=center;verticalLabelPosition=bottom;verticalAlign=top;" parent="1" vertex="1">
          <mxGeometry x="350" y="800" width="30" height="30" as="geometry" />
        </mxCell>
        <mxCell id="56" value="" style="endArrow=none;html=1;rounded=0;jumpStyle=arc;endFill=0;" parent="1" source="12" target="55" edge="1">
          <mxGeometry width="50" height="50" relative="1" as="geometry">
            <mxPoint x="460" y="800" as="sourcePoint" />
            <mxPoint x="30" y="620" as="targetPoint" />
          </mxGeometry>
        </mxCell>
        <mxCell id="57" value="scrape mettrics" style="endArrow=classic;html=1;edgeStyle=orthogonalEdgeStyle;strokeColor=#3399FF;" parent="1" source="22" target="55" edge="1">
          <mxGeometry width="50" height="50" relative="1" as="geometry">
            <mxPoint x="230" y="1100" as="sourcePoint" />
            <mxPoint x="280" y="1050" as="targetPoint" />
          </mxGeometry>
        </mxCell>
        <mxCell id="58" value="15000&lt;br&gt;envoy admin" style="ellipse;whiteSpace=wrap;html=1;align=center;aspect=fixed;resizable=1;points=[];outlineConnect=0;sketch=0;resizeWidth=1;resizeHeight=1;labelPosition=center;verticalLabelPosition=bottom;verticalAlign=top;" parent="1" vertex="1">
          <mxGeometry x="385" y="540" width="30" height="30" as="geometry" />
        </mxCell>
        <mxCell id="59" value="" style="endArrow=none;html=1;rounded=0;jumpStyle=arc;endFill=0;" parent="1" source="12" target="58" edge="1">
          <mxGeometry width="50" height="50" relative="1" as="geometry">
            <mxPoint x="428.85714285714266" y="390" as="sourcePoint" />
            <mxPoint x="60" y="280" as="targetPoint" />
          </mxGeometry>
        </mxCell>
        <mxCell id="60" value="15021" style="ellipse;whiteSpace=wrap;html=1;align=center;aspect=fixed;resizable=1;points=[];outlineConnect=0;sketch=0;resizeWidth=1;resizeHeight=1;labelPosition=center;verticalLabelPosition=bottom;verticalAlign=top;" parent="1" vertex="1">
          <mxGeometry x="530" y="450" width="30" height="30" as="geometry" />
        </mxCell>
        <mxCell id="61" value="" style="endArrow=none;html=1;rounded=0;jumpStyle=arc;endFill=0;" parent="1" source="12" target="60" edge="1">
          <mxGeometry width="50" height="50" relative="1" as="geometry">
            <mxPoint x="578.8571428571431" y="410" as="sourcePoint" />
            <mxPoint x="210" y="300" as="targetPoint" />
          </mxGeometry>
        </mxCell>
        <mxCell id="62" value="kubelet" style="shape=cube;whiteSpace=wrap;html=1;boundedLbl=1;backgroundOutline=1;darkOpacity=0.05;darkOpacity2=0.1;fillColor=#e1d5e7;strokeColor=#9673a6;" parent="1" vertex="1">
          <mxGeometry x="485" y="190" width="120" height="80" as="geometry" />
        </mxCell>
        <mxCell id="63" value="health check&lt;br&gt;healthz/ready" style="endArrow=classic;html=1;rounded=0;jumpStyle=arc;" parent="1" source="62" target="60" edge="1">
          <mxGeometry width="50" height="50" relative="1" as="geometry">
            <mxPoint x="770" y="590.731707317073" as="sourcePoint" />
            <mxPoint x="638.3506504726865" y="658.1618619530141" as="targetPoint" />
          </mxGeometry>
        </mxCell>
        <mxCell id="64" value="" style="rounded=0;orthogonalLoop=1;jettySize=auto;html=1;endArrow=none;endFill=0;sketch=0;sourcePerimeterSpacing=0;targetPerimeterSpacing=0;" parent="1" source="34" target="65" edge="1">
          <mxGeometry relative="1" as="geometry">
            <mxPoint x="-920" y="755" as="sourcePoint" />
          </mxGeometry>
        </mxCell>
        <mxCell id="65" value="9876&lt;br&gt;ControlZ web console" style="ellipse;whiteSpace=wrap;html=1;align=center;aspect=fixed;resizable=1;points=[];outlineConnect=0;sketch=0;resizeWidth=1;resizeHeight=1;labelPosition=center;verticalLabelPosition=bottom;verticalAlign=top;" parent="1" vertex="1">
          <mxGeometry x="-880" y="730" width="30" height="30" as="geometry" />
        </mxCell>
        <mxCell id="66" value="" style="rounded=0;orthogonalLoop=1;jettySize=auto;html=1;endArrow=none;endFill=0;sketch=0;sourcePerimeterSpacing=0;targetPerimeterSpacing=0;" parent="1" source="34" target="67" edge="1">
          <mxGeometry relative="1" as="geometry">
            <mxPoint x="-1040" y="895" as="sourcePoint" />
          </mxGeometry>
        </mxCell>
        <mxCell id="67" value="8080&lt;br&gt;debug port" style="ellipse;whiteSpace=wrap;html=1;align=center;aspect=fixed;resizable=1;points=[];outlineConnect=0;sketch=0;resizeWidth=1;resizeHeight=1;labelPosition=center;verticalLabelPosition=bottom;verticalAlign=top;" parent="1" vertex="1">
          <mxGeometry x="-730" y="730" width="30" height="30" as="geometry" />
        </mxCell>
        <mxCell id="68" value="" style="rounded=0;orthogonalLoop=1;jettySize=auto;html=1;endArrow=none;endFill=0;sketch=0;sourcePerimeterSpacing=0;targetPerimeterSpacing=0;" parent="1" source="34" target="69" edge="1">
          <mxGeometry relative="1" as="geometry">
            <mxPoint x="-970" y="1015" as="sourcePoint" />
            <mxPoint x="-920" y="970" as="targetPoint" />
          </mxGeometry>
        </mxCell>
        <mxCell id="69" value="15010&lt;br&gt;" style="ellipse;whiteSpace=wrap;html=1;align=center;aspect=fixed;resizable=1;points=[];outlineConnect=0;sketch=0;resizeWidth=1;resizeHeight=1;labelPosition=center;verticalLabelPosition=bottom;verticalAlign=top;" parent="1" vertex="1">
          <mxGeometry x="-960" y="950" width="30" height="30" as="geometry" />
        </mxCell>
        <mxCell id="70" value="" style="rounded=0;orthogonalLoop=1;jettySize=auto;html=1;endArrow=none;endFill=0;sketch=0;sourcePerimeterSpacing=0;targetPerimeterSpacing=0;" parent="1" source="34" target="71" edge="1">
          <mxGeometry relative="1" as="geometry">
            <mxPoint x="-830" y="1025" as="sourcePoint" />
          </mxGeometry>
        </mxCell>
        <mxCell id="71" value="15014&lt;br&gt;metrics" style="ellipse;whiteSpace=wrap;html=1;align=center;aspect=fixed;resizable=1;points=[];outlineConnect=0;sketch=0;resizeWidth=1;resizeHeight=1;labelPosition=center;verticalLabelPosition=bottom;verticalAlign=top;" parent="1" vertex="1">
          <mxGeometry x="-760" y="1080" width="30" height="30" as="geometry" />
        </mxCell>
        <mxCell id="72" value="" style="rounded=0;orthogonalLoop=1;jettySize=auto;html=1;endArrow=none;endFill=0;sketch=0;sourcePerimeterSpacing=0;targetPerimeterSpacing=0;" parent="1" source="34" target="73" edge="1">
          <mxGeometry relative="1" as="geometry">
            <mxPoint x="-720" y="975" as="sourcePoint" />
          </mxGeometry>
        </mxCell>
        <mxCell id="73" value="15017&lt;br&gt;Sidecar injection and configuration validation port" style="ellipse;whiteSpace=wrap;html=1;align=center;aspect=fixed;resizable=1;points=[];outlineConnect=0;sketch=0;resizeWidth=1;resizeHeight=1;labelPosition=center;verticalLabelPosition=bottom;verticalAlign=top;" parent="1" vertex="1">
          <mxGeometry x="-970" y="790" width="30" height="30" as="geometry" />
        </mxCell>
        <mxCell id="74" value="scrape" style="endArrow=classic;html=1;rounded=0;jumpStyle=arc;fillColor=#1ba1e2;strokeColor=#3399FF;" parent="1" source="46" target="71" edge="1">
          <mxGeometry width="50" height="50" relative="1" as="geometry">
            <mxPoint x="-560" y="1273.3834586466164" as="sourcePoint" />
            <mxPoint x="31.288578834329655" y="1011.082510141162" as="targetPoint" />
          </mxGeometry>
        </mxCell>
        <mxCell id="75" value="" style="rounded=0;orthogonalLoop=1;jettySize=auto;html=1;endArrow=none;endFill=0;sketch=0;sourcePerimeterSpacing=0;targetPerimeterSpacing=0;strokeWidth=3;strokeColor=#00CC00;" parent="1" target="76" edge="1">
          <mxGeometry relative="1" as="geometry">
            <mxPoint x="364.10714285714266" y="510" as="sourcePoint" />
          </mxGeometry>
        </mxCell>
        <UserObject label="app port" tooltip="Added the HTTP endpoint localhost:15004/debug/&lt;typeurl&gt; to the Istio sidecar agent. GET requests to that URL will be resolved by sending an xDS discovery “event” to istiod. This can be disabled by setting the following in the Istio Operator: meshConfig.defaultConfig.proxyMetadata.PROXY_XDS_DEBUG_VIA_AGENT=false. (Issue #22274)" id="76">
          <mxCell style="ellipse;whiteSpace=wrap;html=1;align=center;aspect=fixed;resizable=1;points=[];outlineConnect=0;sketch=0;resizeWidth=1;resizeHeight=1;labelPosition=center;verticalLabelPosition=bottom;verticalAlign=top;labelBackgroundColor=default;strokeWidth=3;strokeColor=#00CC00;" parent="1" vertex="1">
            <mxGeometry x="350" y="420" width="30" height="30" as="geometry" />
          </mxCell>
        </UserObject>
        <mxCell id="77" value="inbound&lt;br&gt;intercepted" style="endArrow=classic;html=1;rounded=0;jumpStyle=arc;strokeWidth=3;strokeColor=#00CC00;startArrow=none;exitDx=0;exitDy=0;" parent="1" source="155" target="31" edge="1">
          <mxGeometry width="50" height="50" relative="1" as="geometry">
            <mxPoint x="240" y="540" as="sourcePoint" />
            <mxPoint x="360.62853436871364" y="440.70337625456386" as="targetPoint" />
          </mxGeometry>
        </mxCell>
        <object label="%page%" placeholders="1" a="b" id="78">
          <mxCell style="text;html=1;strokeColor=none;fillColor=#FFCCFF;align=center;verticalAlign=middle;whiteSpace=wrap;rounded=1;glass=0;sketch=1;shadow=0;fontStyle=2;fontSize=16;" parent="1" vertex="1">
            <mxGeometry x="-230" y="1560" width="340" height="40" as="geometry" />
          </mxCell>
        </object>
        <mxCell id="79" value="" style="endArrow=classic;html=1;" parent="1" source="22" target="67" edge="1">
          <mxGeometry width="50" height="50" relative="1" as="geometry">
            <mxPoint x="-480" y="740" as="sourcePoint" />
            <mxPoint x="-430" y="690" as="targetPoint" />
          </mxGeometry>
        </mxCell>
        <UserObject label="This diagram is inspired by:&lt;br&gt;&lt;a href=&quot;https://www.tetrate.io/blog/istio-component-ports-and-functions-in-detail/&quot;&gt;https://www.tetrate.io/blog/istio-component-ports-and-functions-in-detail/&lt;/a&gt;" id="80">
          <mxCell style="shape=note;strokeWidth=2;fontSize=12;size=20;whiteSpace=wrap;html=1;fillColor=#fff2cc;strokeColor=#d6b656;fontColor=#666600;align=left;fontStyle=0;shadow=1;sketch=0;" parent="1" vertex="1">
            <mxGeometry x="-1110" y="1450" width="450" height="60" as="geometry" />
          </mxCell>
        </UserObject>
        <mxCell id="81" value="SRE" style="shape=umlActor;verticalLabelPosition=bottom;verticalAlign=top;html=1;outlineConnect=0;sketch=0;" parent="1" vertex="1">
          <mxGeometry x="-410" y="430" width="30" height="60" as="geometry" />
        </mxCell>
        <mxCell id="82" value="K8s API Server" style="sketch=0;html=1;dashed=0;whitespace=wrap;fillColor=#2875E2;strokeColor=#ffffff;points=[[0.005,0.63,0],[0.1,0.2,0],[0.9,0.2,0],[0.5,0,0],[0.995,0.63,0],[0.72,0.99,0],[0.5,1,0],[0.28,0.99,0]];shape=mxgraph.kubernetes.icon;prIcon=api;labelPosition=center;verticalLabelPosition=bottom;align=center;verticalAlign=top;" parent="1" vertex="1">
          <mxGeometry x="-910" y="370" width="70" height="68" as="geometry" />
        </mxCell>
        <mxCell id="84" value="" style="endArrow=classic;html=1;dashed=1;" parent="1" source="81" target="65" edge="1">
          <mxGeometry width="50" height="50" relative="1" as="geometry">
            <mxPoint x="-620" y="440" as="sourcePoint" />
            <mxPoint x="-570" y="390" as="targetPoint" />
          </mxGeometry>
        </mxCell>
        <mxCell id="85" value="" style="endArrow=classic;html=1;dashed=1;" parent="1" source="81" target="50" edge="1">
          <mxGeometry width="50" height="50" relative="1" as="geometry">
            <mxPoint x="-340" y="293.4433962264152" as="sourcePoint" />
            <mxPoint x="-843.8296524437305" y="744.9888394542868" as="targetPoint" />
          </mxGeometry>
        </mxCell>
        <mxCell id="86" value="" style="endArrow=classic;html=1;dashed=1;" parent="1" source="81" target="58" edge="1">
          <mxGeometry width="50" height="50" relative="1" as="geometry">
            <mxPoint x="-311.10526315789457" y="310" as="sourcePoint" />
            <mxPoint x="-111.30403835272364" y="741.3890081020745" as="targetPoint" />
          </mxGeometry>
        </mxCell>
        <mxCell id="87" value="" style="endArrow=classic;html=1;dashed=1;" parent="1" source="82" target="73" edge="1">
          <mxGeometry width="50" height="50" relative="1" as="geometry">
            <mxPoint x="-340" y="293.4433962264152" as="sourcePoint" />
            <mxPoint x="-843.8296524437305" y="744.9888394542868" as="targetPoint" />
          </mxGeometry>
        </mxCell>
        <mxCell id="88" value="Access K8s Object" style="endArrow=classic;html=1;dashed=1;" parent="1" source="81" target="82" edge="1">
          <mxGeometry width="50" height="50" relative="1" as="geometry">
            <mxPoint x="-871.783042394015" y="448" as="sourcePoint" />
            <mxPoint x="-942.0653128477175" y="800.2898806491849" as="targetPoint" />
          </mxGeometry>
        </mxCell>
        <mxCell id="89" value="" style="shape=image;verticalLabelPosition=bottom;labelBackgroundColor=#ffffff;verticalAlign=top;aspect=fixed;imageAspect=0;image=data:image/png,iVBORw0KGgoAAAANSUhEUgAAAQAAAAEACAYAAABccqhmAAABfmlDQ1BJQ0MgUHJvZmlsZQAAKJF9kM9LAkEUx79qUaThoQ4dIhazLqnYBlKXQCVM8CBmkNVlXVcNdB12Nyq6dAi6CgVRl34d6i+oS4egcxAERRCd+guKuoRsb1xDK+jBm/eZN2++zHwBu09irNQWBMqqoaViEWEuMy90vMCJAcoReCRZZ+FkMgGK7/ozPu5h4/XOz7X+nv8bzpyiy4Ctk3hSZppBPE08uGIwzlyvV6NHEW9wLli8wzlr8Vl9Jp2KEl8SC3JRyhE/EfvkolYG7Fzfm22ZKbRwubQsN97Df+JS1NkZqh7KfuhIIYYIBMQxhShCGMUErSH4ISJAOxjKqsEvRytsTVsqFA0hTE4oQlyVAz5BDIrkL/f1t1/NXuUQGH8HHNVmL7sLXGwBfY/NnvcAcG8C59dM0qR6y0Fpz+eB11OgOwP03AJdC3p+TLR+5IoA7c+m+TYEdGwDtappfh6ZZu2YLpNHV6rlUUMLJw9Aeh1I3AB7+8AwabsXvwBZm2dGK6LIXgAAAMhlWElmTU0AKgAAAAgABwESAAMAAAABAAEAAAEaAAUAAAABAAAAYgEbAAUAAAABAAAAagEoAAMAAAABAAIAAAExAAIAAAAkAAAAcgEyAAIAAAAUAAAAlodpAAQAAAABAAAAqgAAAAAAAABIAAAAAQAAAEgAAAABQWRvYmUgUGhvdG9zaG9wIENDIDIwMTUgKE1hY2ludG9zaCkAMjAyMDoxMTozMCAwODo0NToyOQAAAqACAAQAAAABAAABAKADAAQAAAABAAABAAAAAACeX8ezAAAACXBIWXMAAAsTAAALEwEAmpwYAAAIVmlUWHRYTUw6Y29tLmFkb2JlLnhtcAAAAAAAPHg6eG1wbWV0YSB4bWxuczp4PSJhZG9iZTpuczptZXRhLyIgeDp4bXB0az0iWE1QIENvcmUgNi4wLjAiPgogICA8cmRmOlJERiB4bWxuczpyZGY9Imh0dHA6Ly93d3cudzMub3JnLzE5OTkvMDIvMjItcmRmLXN5bnRheC1ucyMiPgogICAgICA8cmRmOkRlc2NyaXB0aW9uIHJkZjphYm91dD0iIgogICAgICAgICAgICB4bWxuczpleGlmPSJodHRwOi8vbnMuYWRvYmUuY29tL2V4aWYvMS4wLyIKICAgICAgICAgICAgeG1sbnM6dGlmZj0iaHR0cDovL25zLmFkb2JlLmNvbS90aWZmLzEuMC8iCiAgICAgICAgICAgIHhtbG5zOnhtcE1NPSJodHRwOi8vbnMuYWRvYmUuY29tL3hhcC8xLjAvbW0vIgogICAgICAgICAgICB4bWxuczpzdEV2dD0iaHR0cDovL25zLmFkb2JlLmNvbS94YXAvMS4wL3NUeXBlL1Jlc291cmNlRXZlbnQjIgogICAgICAgICAgICB4bWxuczp4bXA9Imh0dHA6Ly9ucy5hZG9iZS5jb20veGFwLzEuMC8iCiAgICAgICAgICAgIHhtbG5zOnBob3Rvc2hvcD0iaHR0cDovL25zLmFkb2JlLmNvbS9waG90b3Nob3AvMS4wLyI+CiAgICAgICAgIDxleGlmOkNvbG9yU3BhY2U+MTwvZXhpZjpDb2xvclNwYWNlPgogICAgICAgICA8ZXhpZjpQaXhlbFhEaW1lbnNpb24+MjQxPC9leGlmOlBpeGVsWERpbWVuc2lvbj4KICAgICAgICAgPGV4aWY6UGl4ZWxZRGltZW5zaW9uPjI0MjwvZXhpZjpQaXhlbFlEaW1lbnNpb24+CiAgICAgICAgIDx0aWZmOkltYWdlTGVuZ3RoPjI0MjwvdGlmZjpJbWFnZUxlbmd0aD4KICAgICAgICAgPHRpZmY6UmVzb2x1dGlvblVuaXQ+MjwvdGlmZjpSZXNvbHV0aW9uVW5pdD4KICAgICAgICAgPHRpZmY6SW1hZ2VXaWR0aD4yNDE8L3RpZmY6SW1hZ2VXaWR0aD4KICAgICAgICAgPHRpZmY6T3JpZW50YXRpb24+MTwvdGlmZjpPcmllbnRhdGlvbj4KICAgICAgICAgPHhtcE1NOkhpc3Rvcnk+CiAgICAgICAgICAgIDxyZGY6U2VxPgogICAgICAgICAgICAgICA8cmRmOmxpIHJkZjpwYXJzZVR5cGU9IlJlc291cmNlIj4KICAgICAgICAgICAgICAgICAgPHN0RXZ0OnNvZnR3YXJlQWdlbnQ+QWZmaW5pdHkgUGhvdG8gKE5vdiAgNiAyMDIwKTwvc3RFdnQ6c29mdHdhcmVBZ2VudD4KICAgICAgICAgICAgICAgICAgPHN0RXZ0OmFjdGlvbj5wcm9kdWNlZDwvc3RFdnQ6YWN0aW9uPgogICAgICAgICAgICAgICAgICA8c3RFdnQ6d2hlbj4yMDIwLTExLTMwVDA4OjQ1OjI5LTA4OjAwPC9zdEV2dDp3aGVuPgogICAgICAgICAgICAgICA8L3JkZjpsaT4KICAgICAgICAgICAgPC9yZGY6U2VxPgogICAgICAgICA8L3htcE1NOkhpc3Rvcnk+CiAgICAgICAgIDx4bXBNTTpEb2N1bWVudElEPnhtcC5kaWQ6OThGOEE5NDMzREM0MTFFNzhBNzhFNzk4NzgwMjc5M0Q8L3htcE1NOkRvY3VtZW50SUQ+CiAgICAgICAgIDx4bXBNTTpEZXJpdmVkRnJvbSByZGY6cGFyc2VUeXBlPSJSZXNvdXJjZSI+CiAgICAgICAgICAgIDx4bXBNTTppbnN0YW5jZUlEPnhtcC5paWQ6OThGOEE5NDAzREM0MTFFNzhBNzhFNzk4NzgwMjc5M0Q8L3htcE1NOmluc3RhbmNlSUQ+CiAgICAgICAgICAgIDx4bXBNTTpkb2N1bWVudElEPnhtcC5kaWQ6OThGOEE5NDEzREM0MTFFNzhBNzhFNzk4NzgwMjc5M0Q8L3htcE1NOmRvY3VtZW50SUQ+CiAgICAgICAgIDwveG1wTU06RGVyaXZlZEZyb20+CiAgICAgICAgIDx4bXBNTTpJbnN0YW5jZUlEPnhtcC5paWQ6OThGOEE5NDIzREM0MTFFNzhBNzhFNzk4NzgwMjc5M0Q8L3htcE1NOkluc3RhbmNlSUQ+CiAgICAgICAgIDx4bXA6TW9kaWZ5RGF0ZT4yMDIwLTExLTMwVDA4OjQ1OjI5LTA4OjAwPC94bXA6TW9kaWZ5RGF0ZT4KICAgICAgICAgPHhtcDpDcmVhdG9yVG9vbD5BZG9iZSBQaG90b3Nob3AgQ0MgMjAxNSAoTWFjaW50b3NoKTwveG1wOkNyZWF0b3JUb29sPgogICAgICAgICA8eG1wOk1ldGFkYXRhRGF0ZT4yMDIwLTExLTMwVDA4OjQ1OjI5LTA4OjAwPC94bXA6TWV0YWRhdGFEYXRlPgogICAgICAgICA8cGhvdG9zaG9wOklDQ1Byb2ZpbGU+c1JHQiBJRUM2MTk2Ni0yLjE8L3Bob3Rvc2hvcDpJQ0NQcm9maWxlPgogICAgICAgICA8cGhvdG9zaG9wOkNvbG9yTW9kZT4zPC9waG90b3Nob3A6Q29sb3JNb2RlPgogICAgICA8L3JkZjpEZXNjcmlwdGlvbj4KICAgPC9yZGY6UkRGPgo8L3g6eG1wbWV0YT4K/nbiKAAAQABJREFUeAHtvQl4HMd1J15VPRcOHgAIggAJEqQgiSTAQ6Ks2xIZS5RlWxIPQytLsiLHsbOJk012//E/2d0ky+TbzZf9/sm3zn+dS+vYimRZcqDLkmVZim3R1kFdEEmA4AmSIHESB3EQ1xxdtb/XM0PiGAxmBjODmZ4qstE93dXVVb+q9+rVq1evGNNBI6ARyFkEeM6WPAsLrhjj+7dvN7Zfc4m3tA0JUbjEUyh9JQElyzlnK7hiZYrxpZzzxUqpxSgiHUuZYgWMs3yc8xjnQjHlQsU7kBxOElEEDoXklZ8z7sMVkuFj+D2BByN4MCg4H0Saw/h9CWkN4LUeg/Eu5eDdTtdY/8WLzFtduUSygQbJ65mJeDpkAQKaAWRBJZ26t9q92O1ZJR2s0pSs0mCqHERapjgrBsEuArkuwvUiMIBCEKcHRaLDjfue0G+icKprq77pDzETnKYE3CAuEA50SYeJ+xO4IGbgxdmL8zjujeB8CQcxiGHBWT+YwgXFeScTvA2/28t6i9v4/v0BxNEhQxGY0QgyNJ85k62BXVuXjgu5jnG1Gj1uJWeqFLS6DAAsx4Fr66DfeThA2NSLqzCBh89Ur+EDl/MOxAgo0Dl8SFyA73CIEBbfoF5/HE/7cO7hgvVKxnuYlP3IVA9y2RaQ7LxbBk6XvnKCGIcOGYCAZgALXAldu7ZWBVigyhC8gnO1ElRVCdJdC0Jajcopw7UL1xDXrcOgM+4Li7zDZBkqw7SfKS3ZjIZDN4gjMG5iBEFSA/X8JlhDANKAD/c7FZNtnIkzYGrtkqtOU4kOw1RnV/7oSFtKM6sTnxWBGfU4a0z9ICkInLm/tswj+Cp0nasA/jrF1Uac16PDXgXyycdHXKAjD+65QDjUo1shLJunk8jD3473HG5UJJtQoJNUFmMAI2BeFIqGEqN4fh7n40KyY0yos1IZHdww2srrD/ZaL+o/KUcgXFcp/1CufkBt3+5oXdq9yuVwVPAAW8cMVQOJfSvE+7VQrC0C0ReACAodnBs4owfFP7qwroNnO/wNNzRiChg2WEWCeEBSwiiOEdwaQtHP4jgEbJoNwzhjBmRnhWtDJ6+v10rFFDWCcL2kKPncTFbV3ZLXZQ4uZ9wolUrVCiVuRU9fA7BpDL8UR7FTgOBB6DJE8CGazynAqPFByoEWI9gMTan8wGEALHAQTAJ6A35Ymep9JsRRZcpeX9FI79onW0kZqUOSEAgin6TEcjmZj7++zbl6YKLEL1U5V3wbGvCtaMxQ5rEVoPFVIPgCAps0ZzQwzkWCn6t9EB/A1KLFFAgfP007KtaBy27IRqeUEu87mPxk1OTdH7uP9D2opxvngnTO55oBzAlR9Ag9dTWFSorl6L22IuYdaL8b0VjXgAGscxvcESZ4aMZ0iBMBAxzBQAvFUIlNmJKmH2mIcB4YNwnB9o8HAkfyFrl6VzzdSMMIHRJAQDOABED71zpm3BpYD4MbYz202zdDqXUdktmAY1OBQzghBbAAenkifh2SgwANFaAnsTSjIwFJw4AmTEIeFUJ94mfyAzlhnPzea01D+4KWTcn5aA6kohlAHJX8FhR61yzpK8es+xb0SjcpJW9BT3/9IpcoIqL34dBEHwegCUYlZuCCCEDSwWhAYsaAN2BQ9QGmUQ84lWx8yzjWo4cHsYGrGUAMOCmM7zt6R9cK5qiFeH8bF/xuTMRv8qAFeiHbU2+vw8IgQFIBhlpsHCaSULgexBDhDfCG93wmP1o5uOyctkSMXi+aAUTBh0xwl3oK1gSY3IJ56s+igX3WLUQFvUI9vib7KOCl+RH4AHPiD9UJ6uY8fr4Gs+Q3YWjUtHy5+zx/osGf5ixlxec0A4hQTWe3V3ncpQXLWYDfAFOcR9Cq7oYWfxGJ92ACtiH8cOXbiZFRmUhpSGdIZoM4vYbrZ5WhmkZHvBeufr2FlIk6hBAItwENCBCgHn+RJ3+J5PI22OL/OpRM2zHeXELg2GlsT5UOog8b4fhALbRSsIDKaadAugIaneF/P8r4C7CFJ4VfNfS51UBNfbPPTmVNtCyaAQA5VVdnDLAzhT45cQdMVn8Dt27FsTxEKIlim6nvUYdPq/sOoqP8CRRoWMCj7gex3GknJjcZ/FA9Url7wBB+iYUV33E63B8W1TRc4vus9dCTo+fUdc4zgM77tuUzp+8GsIHfRM3vwEE2+rYR8ye3ZuoRQeQwqOH/jNHyK+78iY7xMc/DsLj7U4OrCrsygDAGoXolBwhtkO7e5Ep+J+Acaqqsbx8Px8m1M2GSk4Hm8j8tN66XTDyOefx7QPEb0EXQqjtbBtKWY0z8Duxu/0bk838j45mOB2orhaH+winE4zmo1JyANHAczO/HTiWeLn3p8ElbVvwchbJtg49W7q6660q56X8IXcFeONG4jpxpIL5tmSFZ1GE1zc+hFf8rKQrfrXj6gNXjcYe6EUOe60M9YzTI7PjMA1i2QqW72i/MG7v3bnpeulwvVTzbQP4McibYttFHqkFVV+PqlOIOjHkfRsHvQpyVOAgD2+KA2QsWkOoAV+pP/I7FByrrg8RPtg3dfd7/Cqnnm2AQ+bQ+IUcDFZyOc2gFbzAuflBe2/hurugGbNvwpzfmtvtrqh1OvhvtvA7PtqLg5FwD/vHsG6wxv2QnMC/2x2GxP1zaobqa4hGT/Y0H4r/X7oP/cKFnORMRoB2QboD8FByEVPhD5lAvV9Q3n5/lFdvctv0QoHvn5gK1SN0pJXsUtXwnqroMhGHkQptHGftB/E94hOut4qcbpiyYmZACy5JlMQ0P7KnyjJ1GQ52AQLvIA2Y3QRJYBZ9GW9t313x/fML7rp1tB6D/sm/o3LNhjVykfgsOJv4c7XwXGnoF9fy5QPyoVRRTvQrzt5eL6hvIm++UEGDmEsyL54Ua/5RnufqD2kVIMlyN9vKgwcVf5ue5v9pWt4WGirYMtpQAaKzfpYybMM3zOIj/M6i51ZjmIp9UuRIkGvJRJvmzqwdLzuN6RskN5XBLJZ32sWtMTtWGgYJfggKTqRvBJJcJ06zp2lPz5PGLpQd32MzLse0kgPbd60s6A/xRZpr/A+P9fwexDmvzLU+VyWkhGZ4Kykrd2Dicbr7ocKr3ZlsMA2vHABY1YXLAeiPDS5X+7JFSlNoN2s9VOD+M6eK/2lDU+0Xy2pz+3KTui7aRAEh6636gZgOmuh4FXLtgD74B3NvyvpM6+DIvZeAQQH/frJjx+vL6RvLdHzlINorFyz4uSBeqQyQESBqgyRHoSZZiDcivwc156ZgIXNu2d8MPKl84dirSO9l2zxYMgGz4ezyeO8Czv4IquwdGL8XEwcnfXi4F9FZU4jEMe14VfmdjtLIHTP+Qw+kcsXSA0SLqZ1YnAmiZ0+CbYDC1wqFEVeeeTd8bHR//INsVhFk/BKDprII8z4NwRP9nWMDzELh1Ma3Pzy3SD1Ipaf2UZO3QYP+i4tUGbO01e/C4HcOY7uojJybUuHWIjgC1J7KWROdSCmETUqb600V5nl1ns3xIkNUMoPW+zWsxl/2b6MX+DE4hbkdDhqIvF0mflsBaDZjca7/NpW9Os1a0Yh8sIDtgJDREy2d1iA0B6lwAlwPt7S4MCf7UJQJfJpPq2N7OvFhZyQDUPia66zZtcjnVf4Bnnv8CRxDV5JknN0k/2KhI34EwhOON8ldP9gfvRvlb3+xXUp3GW23kWkuH2BGAIGB5goJHKHL1/ifcYL/dubt2wz60y9hTyYyYWZdhMmG90Lj5Rmmqb0IM+z2H4EtIjM31EJJ8uoQhDqFRzgkIxXEKxwngdlYLAIm1HngqJieltGfj72P4+Qdfb6q9npaWJ5bawryVVQzg7ONVnq6L3h2Sm38GuL6M8b5B47JcDyT+4z/1/h+PMufFWPFwCMcZzJq0EIR4X4cEEKDOB+stsKWb5UfiP3cHjt+eTUwgaxgArdt3DRc+ANX+f4fYfy81+lwd709vpyT+g4ZpN50P17F1s0/9TXuxuL6BtuM6ASbaq/UA08CJ4yd1QuiMHMByD3aA+osL5onP05ZwcSSxYFGzggHQ5hvMMfEIaP6/QQv7KdLz6Y7/SpshER7/h6Ceaox7Hz0lm5HSIT0MuIJnIlfUGVGnhOMOTD/v6yrpe4iGq4mklc53Mp4BdH95c4Fpsscgqv6/IP4NuTrFF61RhByVDmBpY3u0eJGemQ6YDGPoQCIE2m86A/Fx2i2YNvmwxeaf1ClRoQRX18Hj0B939/oezXRJIKMZAAx8FssR9XXMu/whafqJ+HWYikBwKMTI0217v8OMOvc/9c3gr8r65otosE3A9gLE2EhRkn4v9J02DFyeRwNsQRmySnEWDRBqocQIgGmNEuqPuor7v5rJkkDGMoCLdduW5Od7fgva1d/HmH+tJv7IzY7G/yDbEXQ9bYvZUEI9qVTGCaTxITXeVLMAIn6Iy/3YxedJyfk7GLb4IdlFLlwW3yUmAEOrazE5/YedvRNfpx2jM7E4GckAaMzvDfj+PQD8XTSNNVrZN2fToZ6/50JRGbn6jju488ZaILy+A5wx0or79ZhfoKTByL04fxsj5meFhEcmJSvtukozxFCr4Xfw/+mUIxkpCWQcAyBtvxng/x7a1N9Ge1lNIOowJwJw8y0Gt1U0JCQBlDzTMgyrwMP4SrslT8z5ucQioC5pmfKPFTO/ZwpxCd/cjOHdMtJh2DxUCaX+oKvP9xvNWKqeSWXNKAbQRmKSy/s1EP83ABIt49VhDgRCGAXg72CM7SNVXmLBZPIM3txPxJgK3EnMR9KNJuffrXjx2Dkh/bTvQjkMaRLPdGJFXYi3IMyytTQcKJH80UxiAhnDAMjIx2EOfwWt4fcwerKIP+HWvBBVvIDfBCHBJo35cE4cMrG0HY5Df4ZiXErFMACi/wh0Oc8xId+3oFKc7OcLE8/wAgKe2KdJX7sOuoE/LA6wh2gFa2LJJPetjGAAxBFh5PMIRqD/AcVbh4M4pg4xIgDiJ9F6XltdkbdgjMUbgfvxVBgFoUJ/EjDlCzTrQPWNb5CbrVxzSUb0BsUg/0NaSZgJksCCM4CPYSxRLPku9F2/C9nzGgCEtmyfQIUh1k9HqgqGdEFbgubT5xUMp6sD9fAmVgiSoi5ZgXg5nGfw5y+s8JyjRMuZJ89UfBku3fYf/lOJpwQIQqwWoPxBieI7F3qKcEEZANlMV/RP/Boawe9B7NwMmJLY7qaAvmA/UNGgJzaGw0+iNTGCZAaiLgQkLxNSAAZfD/59mx28CCXgv+FXdxKlAKyaZa8j3V9ue6LBmqW4GPC7BVO06WrGW8pNxieJ1yTh3igl/waMhW5dyLUDC8YAAADv9h/dBospjPnZzUQbSQQ4I5IK0fooMvM6mNy3QKX/hmMUKxiTxunoG0jNFI75DQEIsAfrmel0iBYk2IApQYws5hcoX0jhFM5vrHipsQd5tfiVy/Q68A3ajdiRq4u4g+1d7QAgv9XLjm4iepgf2om9vSBER4Xt2l27Xgn+u8j2XaAHNATbBjfU3+cMh/gHwcWfggS+A5HgHPWwyapxEJFfmYoYzbyDZIEhTFm9joT65pM/ehc28QFoc15nwvHR5AbO3R5S/dPEwHw+Me+yLmQC1N5hFOUGPvf5Tf619r0bqhciPwvCADofqF2Fyv8qClxHIKBXtGWgYkHb5cFc93Wml7lWvND4AfO4/zukgW+DOFpCJrHzLjuUSj5s8Hlp3gkhgdL65lHsF/guaPPsfIYBKDum+Vk3vLH/vLz+YC+uL9eyx0u7k8MdybxljGSUeOHSIAM3LCUuBDaPCCYe7d2zoTzduUk7Azj3+U1F3FB70QK+isJ77G7lF2z10HgbcjWuOW0+6TL9/wSi/Qe/Uh00HJhvwP4HXtPnnbH5RyLpEqF6laML/fdHqBt/gmnQaxMg+beVoZqmpyGZ0wRTJC4AV465HWgpsRtObcAov+ZVxgPWytc0QpJWBkBzny4Xuwu9y+96DLGUCm/3ECyiWgRz0HUXH6mmXYhZ6SsnLjGX6yk0/n/BcGAsUR5AxGMhCGIyPSVJGQJQ/qq8I5gS5G8g8TP0O+4QpOphEv8j7a/nc4OxKD4MKRAMJtdZANyLoZGAHspBjL/jl2yH2pc+fVjaGAD1fnl57lvRKL4BsfgqcqeUC4GUXCh7HnRqFabPDc8xwUCSAHzx/RC/XicmkSgZ4F0Y1/HhVUW+hNYBhPMz+cxfb8HqwsABZOoY7sddUZBsSfl3DkR+cHK64Wunx/DC6Ig8GPkTLXc4LbucvaAHQ/BNXMK/4JHam9NVrrQxgO69GzdiAvRxFOxOiL7pKt+Cf4dKikYOZQ8vAoVOsQNf/sKRJtz/PqJYSsF4M4seFEGNA84BNrAubkKN9j3lGBkDAX+AOAP0kWhxJz8LSTNkTfir4FBi8tPgddlVjePYl7kXv7zBMsyMk2t3LgPM+V1gAo/RbtbpwCAtDKANvvulEl9EgfaS4isoFqejeBnwjWDNorNXmPs2pqx7B/0qB0xjcX4e4+2ARc9xZDmkRIcLMNX75/X1l9tQHEnMGnVVb7Ufmf0lEiUX4zGnHcyTGgTbe2vty4dwnhn4PjQByS4g1Yl4yzwzNfvcIX0YpGOyjfiiw8H20MK4VJcu5QyAxjPc5J9HRT8CX+oFubiuH0QBWuIev9ecwgCocpfXN3fDKOYliAmnE5kVgDJxGJV4YV8Conq0xkV7CgrTdwT11owjJiMjImYsJoIkwtuZaZCnoVkDOoFu9AWj9I4OVxAgJ6OgkxKs7nyMuSbuvfIkNVcpZwAdhzfdhI88Bs52Nfnuz8VApQYTkMAgIgBgD6chbr8O5hi3FIDOeRiJdqcC12XD5ePQYNA4vh9HxLxP/i6J86D+YcRsGPGORPVOLIQcoKFLLg0HJ2MV7doHOoHDFOw5wB+/sLeWLGRTFlLKAFoxr4mCPIrc35qLPf/lWuM0nabGTGFGVNSVso29XKgfIU57rHPv4Z6TlGlQqfdc/lYyL7bvl06DvQfKb8L3IuZ98udCxk0DYBrvV7/eEtUugRueMXDFs+jwRhKdBZn8bTtdE6elBQNgpJ82pfr1/keqF6eqfCljAOQM0c0de1CMe2HylZ9T4/5JtUW9Iv774Gxn2BnwgBHMDOTJV/rZafD9gxgHztnTTklB8CHD5CmRAGisPlowehyWjE3I1Nxz9sGc9zGHcdBqvlMyOvXHCubBNmac9AsDsTK9qSnY+xfpAzAkXAKM7hsfz9uTqtKmjAF0F/XfhvHgoyhETvvzgxhHjjAmMFXX5zXGyXlnxOB0qQEoCF4D4ZDNfEyBGgmYRv+YbyI1EgBysfbJ1gn4CaPx/KVonInybMIkGcVt9bjGYEgUPXAsP8aU8BGwR5oO1SECAlS/CFdDR/SVjr0br4sQZd63UsIA+uq2rJQQ/VGvNfPOoT0SmEBj73M5jFkZAJngwmruAAi6k6SGuUKo17wEgaEz1VtUc4MfQlM8jIOcjkQMlB+014vQcjQX+9wxLU02FG/BSzQdqEMEBIj8Q8OjzUKJr6RiJ+KkMwDS+vsCgc+hoexA5heFuFiE4uXGrSDBqAma9sJYf3y2UiOeUhN+9OTqCIZLc87phwiRev622dJM2v0JFwyC+Cf45qxOR4L54X1gAk28vnnWeJPz5BSufgx2j0M5PKalgMnIXLmmoTOwXYrTZz1GYOeVJ8m5SjoDuNC0+VMYtzyG7K0NSjDJyWi2phLk4HwQFdk91649wusZh0z/HoYNUcf0RGxYTESQdGEZ5flUY1PxasMY+neaEpzV3NjSdXDVC8OG5ljzU0TbmClsSsLYeVoaqMPsCACdKinV12kX4tljxf8kqQzgbF3NCoz7H0JmN4GjY6MaHQgB4NDpNMSci3WO+Yq9jIsP8UbHXMgRc8XRGTBFyhmAVQaTnYZYchrXM8x3iXSxrgOBdxpDse9OZDFEzj/C+6e1InD2GrfoiMN5CufbcDw8+PCmotljx/ckqQwgjxYyMPk5ZHhxjk75T0GfCAPq/wlM1Z0RKjCr+B9+aQeMb6TynQN+7eF7kc7UWSIO9tVgbdJ9MS0MQLoMmCuzRsij49M76xDxwrZftZa92Rjf7kQ+13nwjiasPhpPxBAqEj52vEcMH9WO6UC195KX3ZKsMiaNAbTvXn8N1pHXIZtVaCDU9nM+WISiWA9p0cW4f1bxeTJQylE0BtsJmh6blZCsOWLGLiLd1sr69jkZy+T0E71eVXO4C3qMY2iIM/wFUmWjffbiOBPkTbF/xRpecI5didRJh241UYEDPESvVxlSfal/z+ZVUSPH+DApDICW+RrccR++eTsy6SJupQNpcK0W3W1weaT4phbY7M8dJkZ6JaSn44h5AUdEJEM3W1F5Z+ZOMTkxLPt9rlrx7RkMh/KDkl4QwhoiJPBB8xNgRTMNuueIgl6o3jEUYDv9XO5MhmvxpDCAxZ686zE+3IW8F1tNPkohcu0RhKHzAeXoIAKKpezV46tMLvhJVHYX3p3xDuGLmRVqCyfgU+dsLGkmK45SAp59eD8YVKgtTiJYznomAoHWRL5V/uKx83AQ9CGWxPZpXcCcCFITKJWS/bs8t3sDKmJeJDcvBkAfp008Mee/F53dDciYcbllzFkO+0fAgJ56y2NM+Wb0mrOWfv9+08nVGeCJmYCZslSIQGBPoI6bjkWts6aTggcwSBlEa2tDHU8ZBlhTvUr1BbyBOQ2AImULaSosh38PxlJv06zJvFp0pA/Y7x4Nsu+ExPWFwV1bybtywmFeDIDV1Qmv6b0dDeIe9AkZsdNJwkgk+UVr+g+27ugsD9K4PtbkiRhKizz9kBd6IjFTIg4cMJ9lp2kzj1jTTUY8JzcHJZPnkRYsG4MphhgSle/CfAyShpzsKAr2S8wmzFAyJiPvNkwD9Ca+MMp82z7ets2ZaPnmxQCG2dElkFH34uPX4gg1iUSzYq/3goo6dUoY4lDchHpykcIwgHrTKQtwCOCgYRU/FpCiNd2I+f35Q0yJdjQarOMPVneo0rGfwPxWJNbAeAheRD9CR/JBOO10ly/7vqduEELcW1FxKWEpIGEGoLC907hkt6HibwdwCXOg7AM9thzT6keYQhwfZc6oy2IjpbYfNzGdSgyAHGpcFgSo1wXDhVkx+yjAExtvI72EA2nsQaQXkKHLJsHBzPFe2ABENV6K5aMY+mCaUf0ITG7CkqBieSmH4wAj8jPxa8xwXZ+oQjBhBnA6YCyVUnwJ+K/N4TqYteig1TMQlw+7mCsms9jJCW0vLYVbDdEDgic7+cuKwJBUcRGLbj6pevEYMYi0B85lP8pGi34sGQBz+MiD6lHG/CQAKgico2CmxPgVLg/Qbx2iI0BmwsB+E9aQ3L/Y6VkaPXbkpwkxAOI2bqFugJL6FrQDR+Skc/su6uawk8mPV9UcmHUB0KwI1dSjo5X9oK0BMAGLAQBnXMBPDKQKVNqZWd9N8QPYKAyibJetAYNtkF90KjMpi3pEATsBa7fn0LgvaSlg7sqE8ZRDKP7pgJNvSmSz0YQYwNI8Z7FDqccwVltpNYC585lrMUC0vDngy495+m8KQPuI0kUf7l0EE7AgtsR/OM/Avf1cOM9NiZ/GH8jPCLI0Tr0P5QkB0r8a8ApBXoPmHVY83TgKyXI/GM07wR5u3knaOgGSwFAV62Ft+sXFzFEab2HjZgCkcTSFcyNa+O1oAHrsPxNx1Ic6j4778GhgKCZfejOTgH5X8otwEzZEiRGdhRbLtJuCv0c77UR6Jx33OHYhBuMfxDgdW5JbHEBierCftv1O1vdFwNEOC4inkN4FLQVERxXtg9qGCzVxm+Hzr9sXtBaM/tKkp3EzgGVrxpaZUpKnn2VgPjrMRABMmX9oKkdj9U0tET0AzXxl6h1gq8omxkD8knp8WPxC6wY/uoD7gFOps1Njp/cXfNdjwRJchXPmCxGnF9v8YB1A8gIpG6XDckW2X7exuXGloSHaRpUyjC98Y8+GsrnfuBIjbgbgYc41eGknKt+t6f8KkJOuQA+qwb9k6DyP0fpv0ruXL4Obc3CaX1ehRTLnIAr81CcGFkT5F86YQ3Ef1gQMosX5iQHg/xCOiO6/w+8kci4f8dJsw9N4FysFE0khd96hngFSQCEksR1+bqyMp+RxMYDO+65ZhvHeTnxvlebMEWEmhd0ZeMVprBr9VEK9/5RUOcM6/OAQAOcPXUJ9kq7FP1PyMemHz8CuPrAIRBsIKgIhDZBicFKUpFwSA3QG2Mf4zs/QwBMeSiUlM1mQCHCihlKN844h7MMRa5bjYgDYz64Kguj96JE89EEdZiDgBy7vuiVvZvX1xAzmFcDRSQIwIP6fhUfOFwMTns55JZiEl10uLEYF0aPhkAt7MlYehDZgTl8HiXx6+Qr3RZgIPwc543hI4ZhIMjnxDhmIORgvgu7kcyNSrYm10DEzgO4vby4A8d+Eyt8YUkzH+o2ciBeSUiH+s/fOlrm7qeeed8HRtSIN7P3H3hJCvU9j43mnOc8E4NoYFnvCkgBCBRyQQqaEAfAnGvzMqRohcfwC7Tv+6dR5ljXrXqdGyFmNocT1ClP1seQ/ZgbAhtU6LNb4DMYaecT5dZiBAMx2+QmsmDt6AzXcJASLqTP2gWnKH5QXeRZ07B8uTtWTrV70MrRfoLWnBxSew9jiPOoeAOF3Ezm39JYOY/Hjv6JhH0nk/Vx6B3sIUHGXQfTc0ZWftzaWssfMAExDbUSCt8WSaK7FIcYL6CEay/3C7WxJVvlBXEchBPyL15n3sdUbJivheaRDkg1Wf9KY37JwhGXgJSzli8nZSSKfJS9J2CfvEGSh/Xh/wSWgRMqQrneI/NFBU3O8BYraa2P5bkwMgHz9wcHfNnD65cHFKLEknXNxQATiV+XPNiTFIIbQg+P8A0y4frKupiFlPWwitSSwGxGaGek70DHzS9YuP4kkFOM7pTXNY/B/9lMMPU/gi1ohGAW30PC8Eox528CurXOaB8fEAFxS1EL7fwdFtoSMKBnItUfEbkEFJPKfVIIfox4yWRhUv9TYQ0Y/85lOTFZeJqeDFSjYj4AYgOW/fIR7zNT2zPsYVge5PgLQ7wDeBPZPnJx7e1/TKABKehjo8dvHub92rtLOyQDI7h/a6Ouwtm1rTu/vNwuSJHAB8xGI6r+45PUuuJZ+lmwm9bZPSCJ4qzlA4hwuezpOR6Bx5oYgvqq+AVKH+iWwJock855hiTMLWRMd2ITDFi7E1vCP2c5zMoA8j2MNxqJb8w3h1sq/yDBifDpgcuNX6185kVGieuTczv8u3D7R+B8SgCWOjyRT6omWO1M43ge3/RXiTPFIFO2dXHxGloGok2LsI3BdxwO1ldEwmJMBGMy5BYltCS77jJZU7j0DLgxMMQCuewZ9EsanuRFMw0WOSmCmrLCxh+X2LC0Fr6w/3IHlkO/iYymZdkxLIdLwEQzPaBhATGALc6ioUkBUBtBWd0sexv5bMda7Vu/jPrPmQu6waE78XWUUJE35N/NLmXUnwAJQxPF+lLsX7Syt8/PCxIaiynKaenlJcmahkxm5sZSBnF0D6XRLtBxFZQAuOVKOl6/NdwiHFv9nwkgSAEIf1mO/Fbfbr+C7WfnXGTBpI6BeNB54ArIUoGkrx4jXexxrLd4G8xkl/YsOkREIKQMXgVGvv3B/7awLhKIyABgWkPhQraf+ZoJMbS+kFG2DsHVsZgz73nGbygfvRN0gQpgEq7ROy8HxKIn/HwN/PQyI0sRQNzQEoHA1bHhm3Vp8VgbQU1dTCA3vTUigOqB1rhaSk/+Eeh/szsMOjw8M51RjXOY3fSg/+QDsh1kw6QPSGoTBW6DmakEvp4cBUZAP2QRUg45vBkOIKC/NygACpiyBkmdDniEKtAQwE+XQ9lwXYBZ7YO3+1omZMWx85/UWH5SeF6BsvghLgLRKAISqd4y1Y0rwAC6H9FLh2dtZaBhQDOKvHXp4U0SjoFkZgFLGNXixPLQN9exfydEnJGLBRr1TOMTBXIMAXYkSBnYw5qoPvsvSzgDWvNY0AKG0EZ0apiAjdmy5ViURy0ttlBgkzhWjoyrituIRGUD3zs0FeLAFL2K774hp5/RNAhVSEeaixZmyImfUnXxtC5Qf7sGV6MDKgPGFKCPa5xlw4Jywu5gPvjQliNWU5UzAmG+ftbnolOQiMoCJQv9ijG03o52XafF/Cl7Wj1CvcwGgNmfKIp2ZuUztnQHmH3NweVIlyRtwvLk1sCsdJJATMMIY18OA2dELSvC8DHqArV0N2zzTY0ZkAAY3yLvoWpfgTi0BTIcs+BuMtVNykbNLVEdWFE5gmHhqfCIw7w1BIiMc/e7EhLUkGbMv6pIeBsyOFdEvFvHlIcY1zDOxbHrMiAwAjv7XI+KMyNNfzsXfwREn+efn7W7pP5qLGFCZtz3RECjb0tj3TIzbnicbp9WvNWGfQn4K9aH3D5gDXGqz4APLuV/UTI86gwEMPrypCGuJNyNiMbaB1mEaAjT9B7ET1m/q3LIXjy1I7zctSwvyEzAoWqW4bx6OT+eTcfo+liWfRRqj1MB1mB0BkgKA0VIAtpWseyfHnMEAhrysCLHJ+UeRngGYDFXwOiRu9kELfY4a4cwY+k66EHA6jF5UwCVdCdERD9kDYANRVcsDA/mTY89gANAYFiNCJTyLwAX95Kj6mhAgMGFf3Q2lSptGZGERwIYE5ImoB4Zq8Jmqw2wIWBIAZ+j5xVUOh2vx5HgzGAA8i65ChCUhS7fJcXP+mhoZgYkZkk5oAc7lPCALDIDwT2CXItYFjjyqZwKiVwatDkTnVSJNVTk55hQG0HnftnxEuxpibgE1dB2mIhBiiqB/MADpPT/1qf6VbgRGA9KHoVgPWjb2TyD2rMNsCJA0D8V1PhZxbVR1Na5wvCkMgDnHSqVk67EEuDA0bgjH0+crCEDc5D2rXjqeM8t/rxQ9s66qyRErU6QHGNcSa/S6IXrGvwID+r0uh+fyMGAqA2DOEgBZjZgFevw/E1DqZYDPGLAht9g6LDAC9YUtAaxJoLqgoYAOURAI0XMemOV6w+eLzADQ+xchQjnGC/D6pMN0BCy7aoW98GhzTB0WHIEH65kpDEEbk/o0A4heHUTPwMgFKWCNX0r4CQiGKRIA52YpInk0mGF4pp5DXJSWAA9OfaJ/LRQC2DqZ1gP4tQpg7hoIebAqhLNQsvS1wmUGQAsFsLiFPACBS+gwHQFiiqF1ERexFFUzgOkALdBvHjDJQah2FR4D/qQFwCDWgams1aBxq5+3GAD96PmkthS36AG2/dYsIBKehAqwIZ/4cIipQyYgIA1FG5RgSbKWW2OpD2DlQgdWNbhrKwyDaGYAYf/27YZ0Stj+y1WA0RUSdemRDpMQADaYdeKYclqYJbCTsqIvQwgY0uHHsmDUiw5zIUB0jTbshBH16nHhvcIAtpf2wq+lw7IAJAYwV0K5+JymmYAf/rPxgOCYftIhExCQ5JEI+2ChenSIDQHsGqTWYMXvFQbACkaFkmYRxgfL0MId1Mp1mIkA8QAYSvkNU9JWYDpkAAJYmAX/hDztfgkzoOhxZyFE107I/eVwaGvNBFhDgAvmYtgH8CWIUKhNKmfHlQAETqYyDS1yzg5TWp84mQO6WT1ojRV0SLJkE1wCmamA3rEYgJgwF6FxL8VYCvs+6jAbAiRmAienw0GbL+qQCQjAZY2W/uOsCLBLmPrwK0MAr+TLkUYJxlIWQ4gzvZyJDuInfNzQAWgGkCG1bnqhs1IMPmx0iAkBNGJIAQLu7CyHPxbBGyZbASOBZWCl2gJwFhTDQiYwchoBaFJ1yAgEHE7phlCr9VZx1AbaMHypKLj9Dw0BMC+4AuI/KQANS88dR2I5FpVjoVSej5tTvKrkGAYZVVzThDRGPZpuuDHXi0XnnFvWgJYEgBslsBEiJaDWAUSBEZwTChS+GKAVRommH6URAYizhaB9bb0aH+bY0Q2evxCCDMBSCKhFloYwvoRyJjaYY3jL5RKsq464y0rOgJEhBUWdcCXIgI3nhYdoGZK1TM8G+jJ2ZRoQQ4DF6NsKwBUshpDpuV+w/AE2+EmkoRIZTemwwAi0Pl4Fs3VavyILiEHrMDcCIZyIzq9MA5JYC+InjiA0kLODSL0MTZ/AVkIzgNlhStuTJaMlbi6hv4IHKy0BxA47DWVxWMPYcI9PIq3FAGJPJvdiWoukFDlXZMubJ7lVyj0kMqPEg16vB9LrSuSmUHuwjr1O0I+ho0enjxBkANwifuIIYYYQe2o5FNOSAAgjxVYt9rLVOVT0jCxqgRO+K5lYDauWPO3DMq4qggCgJkkAcAGG1/UioBgwJNkJHHS14WRXxRBdR0khAgFMX4MbL3OgTnSICwFqxtY+geEePw8mwhrGOTAk/QhmAChWJfYG0AxgDrxS+ZjUMcpUV+MM8V+HeBCgFgzcLGO2MAMgX2GaAcSAYmisuRza56tVXZ22m4gBs1RE6frSthIueC3SXqLF//gRBgOwaD/EAHTvHyuEpAfArkluKJ+qe/zHqmJ9T8dLMgIT3lJ0Y1vQa4EBoFJ0SAgBiwGg93fjbS0BxAAhNTWruSm+1hT8phhe0VFSgAA3eBUabDW2vtbrAOaBr8UAAKQWZeMC0WIDa7B+4ka1fbteiRYXdvOPjCnYQixmuR4p6R2s5glnaAgwz1Ry7HXaNh1TT4UwCtrUvXSQ9lLUIY0IwAprNbwA3oxPLtbi//yA1wwgQfyCQwG1Vhn+u8mleoLJ6NcSQEAF+HoMWLfAItNjDccSSEO/EkRAN9wEW0Ko56nE5Mnn2ptr9OKgBHGM97Uz99eWYcb602i4l7e3ijcNHf8KAhYDABeFX3Ud4kGAeh7MBkABpTbCQciN8byr4yaOgNvJN8ECYCfwX6Sn/xLHMfymxQBgBERurrU0FUYlxjPZBAC7CvRIX+x/pFr3SDHilmi0U/dWuzkUr4C9AoprLb0mCuSk90IgZv9E6kLMYVIPhO/SVuqfnpjI01LApIaVisv8PPcN6KfuR9rAfOECtTW7eM8Oc1HfwsGZnC+jQchCh2AFODyGYC7UEDT1RKCpDfgAvrIKPdOXu3dvJueqOqQAge4vby6AJ8t7gPZGJJ+2qVcidNgaMDeOPLQral9kNgfmP458LCQfmhfKVARKIAwktrvC3pfZK1Zhow7+85GAPAdqLIadPkx1WRnKVwomUEKVR6UlxR0Vks7JqrmQ7JSP8w7J5W2qjr3CsW01gatD8hAIjLOb4Y/t82inliOL5KUcTAnpoleHc0Fc0GGgIdEQb9xUXmw80IfdR3uVKfsRo0cJ1gGmDzNktR1Rs24mwmr7CjsqI4QZwChu0h7rZFWFU7YF7AyjVEPA9P+9MHihMFxl3DTXSs7XglNXjZnkNEIVo2DFINQS1HNRPrg5dkexGAPtK0HivAVMAkUnwLCSghjOIz3+2kbGjpxOIBn9SgQEqD127F4Ppq52A+cNiBKWWiPEnvsW1RX14LSoK3gGsYPixwOSdn8epANPB5iSQ1A29oHg23F9HhV8DtHaDEMOyIAxjNh/BDuQ2+f+YkbGwK7qnCSYIAMAFJfQJxITIGcXhFGWBeWAi4NaBxfOihePnUTmT3bv3PyJwyMLvUJhtyMV3BNdySrFxdWo2Gpw9pUoMxyhqsUoPw5WGJYUwA8s7k9n/J8zUBy8T6ur7jS5uv/s41X/sPbJ1ok5X9QR5kagjgmH6bhLKnk3UI7LGzM1ZOrV6RwmdpIAwfgnkN4IHozgyQi4/zCeo1dn5/BGK5hAqxDsAq5HVECNShcbXcXUCK9vtobKXbu2VjEh1yEpJ6WdhYGa9ijl25IAQARDuL6Eg1xdzYvD4v2FCCgHvwMeIu/8+Ovbnr3hiQb/ijcbqYB0oCKDofO+bfnK6S9G51+ELSWLQN3LhOBXQQKoloyv9UpWAZJfBGkiHy0mH5Wb7wTbDzMC4HT5OpzmpDO1Bdpc5VHnUMFhrBT8Ja+v10OBSQDFe4lGyju9m6u5Qz6Gy3XR3ifwSXQncidix7ssIJUJYh7D5ThuoMcDsTPVj9/ncI1eXZ1DY+8C0x4ISGPIkHJozDc+dPXrLcOIM3sQ5nZ85Ua0hqz0Rgx4MCJWVhmDQwBOP/glgGTts0TgZVmg/c6WKsG3rer1/xT57w21gSnFqHi1gRoDHe3hB6frti1xybHlLulYFuASK8w4mAJbA6Jfi3Su8ls+5yzX0x60LTfSdWP+32pgYYZAaYUwwxNOFmqPdwRO0jdIGtEhQQS67rumBN3/I5hsvRO4X170g2uLyClZEuVprI4hHKqKTaBOfPg5jooYwIrNdqVA6IzOogP6oH4pzAHu5/0in/cv7yrt5/v3x7WxKCkj5Yjcis+WIh9QN2VfQJ4p22CGYQlA8WEUZjSEZfaVCDlG/mkof2uAmbUN27a9zRoaLCXHXIW5qr6BpB86ToXjnt21dambB8oxNlxpMrWCS7YCH1iNTUFWS8Wr8KEyQAgpwZKgSPR3oHGhMVj/aHOVz3Nunu6qu+7vy+sP9obT1efYEbAIbVTtBHF/BUOzAtLXELGjR6dE0LkzIlyM3BUNtYAxPwf0zxGxA/8LGOr1GpJfwEsXuFA9y+ubrAZPLyca1D4mLjQFahkX12Ur8SPfgMdSfV0ZAkDBAoWHuISGnbVeQVAoSHO8Bn9uWb1u4kPWENRyJlLZa18+BEUQo+NY+H0Qcyna22oeUGvwpUr0SjBGoR2V2AqAtgINcznAJffU5FoNW62zryjpP91/b/UrJXOJlOGP6LOFgILD1e4RdQP61284OV/lk4oM1TB5oybAZnuBfTd4wQVw3G5oszpJSQfNfKubG+eW1R/uSBWMLR9UOwvyjR0goY2o52xeQYvsW0P+sBKQYVxk6QGyeswKZV8eSnZLQIoXwK1P8n0Wp0tKewj15NSbN4QTJLv0PKHWQFO8Bo11NTqnSjCDMoifxZBHqsCTPufLc5+AXuIQ6SXC7+lzdAQA8mop1BfAXEvR87+H2KTHuSiE6mBStDIuW/0mP/++80jrg2mact2H3r+g0bkCneWtaGPLopcg459C5cUGKJeWDgD9fjfcK/WhcCYeWDJCxhchQgZpKg/hRvQUd5/45Fr0BCdIsZmysO6VI9Qw6fgw/BHMAHg8AwXruFNcLU21Bj1T8apxP0kFmgGEQYpyJjdrPYGjBdinehCM9H+Zkh/ymepMCOsob6b20VebV2ETUrETTH4rvkQtjSglKwMyTsrRPsq8xQBMg3U7cAOlMiFCW6XLypIh07AALPVJeYfH7f4xfqaUAUTCKDT9dxTP6NAhTgRCMyeH8RodGRNc3qWLTSe72+CskqYSszkg+xI6K4sBEL3DzFH1YF6gH2IrTtkd/JaSiN/oMeWv9d5/LW12ooNGYF4IkFQXMPjN1PtnO/GT3IJySMz3XWEA0mNcwv1BzK1ktQ6AapnoH7bbq8HJvhAQ3NoDfV61r1/OeQTUxcIlUD7uQW95tR3AwNAKIwBL50eacxjNG8NgbGoITGAkNI7O6nKicJT/6xl37tBSQFZX5YJnXmEJcp6TbwPR3Ioj6wNIA5MorF8JZU0DWgyg5YID06bGAJ7B9plh3UN2BxLTUAaat9/rNTzYPVYHjUBiCPQ5F5VIyR4F4VyV7Z1jiK79GAB0oTyWXYTFANrHV8EaMnARELWBdix758Tgypy3Qtz6FoOZ97fV1ZCJsw4agbgQoLG/3+m7BeL/HbDuzPZ+MVx2zEbxc35lkvFbcAiwff9+U/gFlAKinRiAHUQd4tbQdBaj2vYI01pFFgZAnzUCMSGQP1i4Ej3lY4hM56wPRNcohh92FOeXMg8ZugUZAN1ffv2RXhBNG669dmF2NNxBga+HCenu3j0b9FAg65tw+grQg70HAkLdg7ZzJy0ysgH9W+ChKD7Y/bT+7cuHrMVA1hCAnpDVHJZVdOKS/ALYIpAUQNt4oTAP+LjY/q91WW2+aYs6yZZCgEg2gyoexXJi2+w9SB07usQAlk2e3wdbAKqLywyAfihlwM6aVlTZJ9BKMZTnKqHEQ7ebm7fYp2S6JKlCAL3/CpjK7UVHeJPVelL1oTSnS56wEEaUlJcXqE1hAFgGO4BCd2GS0LSTFADrLRRH7cDYZ8+5z28qSjPu+nNZhADWkIiA5HfBJmYvfEGIbNf8h6Enegb5Q7rn50whLlvITmEA0A/0g0m0gFxG7aAIDBeepgVhHARHH2yv08U+F76vzxqB6Qh0H6q5AasMH0J7WUNrju0SQvQ8DkZw3OlyWeN/KttUBuDP74UUcJwrPmJ1mnYpPcoBqYZKgy2l1JfO76n5lI2KpouSJAQuYHWnMthDGBx/hpqLfcif7GKsf3D7x5vLAxORGQB5zEGEUxj3jJLm006BmDmmBalIdzgZ1y687VS5SSgL7fJsOvkDcCu3G+6/PaEOIwkpZ0YS1PShDyNvWMfCvg0pZ1MlgOCdNpyGgh0m3bBPoErFuG4ReMEDMIV8kJae2qd0uiTzQaCzqG8HtOCPwe1/1YRpKcjnk1zGvUttHzJAP7xmE31fDjMYgF9ajgLa4IjBbyc9QLjENK6DJADnHeorXerYZ8L39Tl3Eeiqq9kI6vgqEPiUjYb9lyvUsmOwnKLK04GA77L4TxFmMIAlbjAAZa1lHyAfbHYLNK4LTe1sAsf/nc69m9bbrYy6PLEjYO3mJNljUPzthC8Jl91Ef0IipM+D6S8/ohxFNAy4HGYwgKU/aBqEN5ZGxLiI6TNbBuLyMBCCT3e+AwX8Oil/bFlQXaioCJDvQSXkXhj9POoyeBF8D0aNn60PQ/q8QQ7vSpX1B6wNQcJlmcEA8ACmQuw4zpbDgHBEu51DXmYXMym/HHCwB9vqbsmzWxl1eWZHAKTOOyTfhaHxfwSBrLQr8RMCIbbWo5yyeToikRgApsxMshQ6C1D8Ie4x/T1b/LbEPc6XQdD5AxEY2UlGILYomC7EnAh07q69Syj2TUTExjBzRs/aCES/0HtRr3+STXhmdOoRG7xnxDmMMVEjcLkQmjrLWgBizPhqeBT+484jtTdrJhAjYlkcrX3P5psxMP4m2vdm0Af4gH1DUI+nLkDpfah8W8OM7eoiMgDaVgsTIYcBTredJYBJ1U67zlyPMdJ/7G6uWa+ZwCRkbHSJOuYde7dcJ5j8IxTrDjT+rNzaK54qoZk8TAB2YfPMT2jB3/R3La/A02/Sb7gHPMmZ0RXiIJGi2O2eE1B9lpm8q6up9qnWPWZHgcsDGKzd0uxW1pwqD8m/HtMnuwSv5tL8Gn7uBF247dzzUwWjjNau1zh3uvMsvR7dnhJmZQAOQ/SbJj82Du+6GAYU2HF6ZAoSQbxoZ58vQStc42KOi36fnzDUIcsRIGsvP20tGNznkVaE5oTCl6R30O1FnI4swexepGqclQEsr28egaLkA7CRe2AdtcXMen/BkYo/4x4RfAlWTdO+77R7ig62QQCsHTZgKA4kvdwIwfl/1YLx//toyhEFnlkZAEGEzTEPgYO0QAIA14z4vh2RpGET7eSTQ0W2YzXOLFPOtGAUnfquUHlPGSY/OBON4J2oDMAnCrsM89KJsYCEi33msKmdxAxscqmhzCi8vmELBELiP9b9q+NlrzTT9nURQ8RZgHBMshrC0uBD4CcnsEtr+LY+awQ0AhmOgCX+c3YSm9VG3WItKgOgMhoOCfFBHYJvtAwvss6eRkAjQAgQqZLSHv8Pwc3frOI/xZ2TAcAk8DxxkTFTenPEJoBw0UEjkLUI0NQ9hrEXwQkOrXqxsT1aQeZkADX1zdgohB9ExINYQBMtLf1MI6ARWGAEJlHoYS4lhu/Rw5wMgF73CXkELOVtMiOa9IHoKeunGgGNQNoRCCn/4MtDvZ2nnEfmykDUWYDwy2vrm7s79tQ2KKl6IAUsp5V0dg3E4MKCznyZHaE0OY3pv2PBMIz05HSivRfLN8JpUjrT0538/uRrihvtd/hZ+EzxKYR/Tz8Hn87+Nxx/thjTn0//Pfk9ehYO1HQn/w7ft8uZlH8YAJyXUnxS9PKhiMY/k8saEwOgFzCXeFQa6l1c7p6cgN2u0TjG0UjgPIH5cR3mBXYrZk6VhwgejI5OZN+xBAdtFjOd9+FWdgcqEDpnKuf78OlxIpbSxMwA2GJ+Ro3In8NXwGchZuTZ1CaA0DsFJcpP0V56aMgT0xgpFqR1nAVDwBq6QiaG74eVWBjzecxoVUNHTlaBtgow3KOlv31os2+VjY2fjaVwMTOAFU83jsKd9ocOzo5CyNhmR0EK5YL5rzohBf/uyd6S07Rpaiwg6jhZgEBdnWhnx2oMBdfwTK1Djm3HACwZR7FmU8hP+Ost3lhqJWYGQIk53P6z3Od+BXOMNRA3PCRr2ClQeSACmP4J5iPiD4mNdipizpZF1ddLUbfZC814aIcse0FBfjvQ+w8owX5SKPi5WEsXl4Rb8ezJPlPxN0EobXYcHNMYCuUyXA7pqa/T0n+sjSgr4u2DbBcwPVBk29LVpUWPnLWgDb+1pL75Yqx1EhcDoEQDzE/c5d+gA8A24jYNcA9k05LpYtkQAZr6Q+8/Av3GW05ldsRTxLgZQN+5/D5DiBdBIX12lALiAU/H1QhkAgJBpz2slQv+42Wbj8268CdSXuNmADc0NPgN6T+KF9/BeNkfKVF9TyOgEUgPAiSFY+oP1rrsXZPzMzyC269oOYmbAVBig+N+sjN+ClMpHbYdBkRDTT/TCGQIArRIDzR4XHH+/DALkDfvuEJCDOBqTDHAgebHTIkDGArANEAHjYBGYCEQwIxcQHL+tsOvmoLrduLLRUIMgD5R5jAHhZDP4vJsfJ/UsTUCGoFkIEDKP8xbNXFTvTLsn5jT7DfSNxNmALTFcJ5g7yIP7yBhrQuIhK6+pxFIIQKYiYOhmvoFM32fkFSeyKcSZgD0scVsI9nMv4BBCG0lpqfOCBQdNAJpQ4B/DLum1zs7FxEdJhTmxQAYrKvchvsdkP6b+HpCHCihXOuXNAIaAdCb/HEBczXQzFyicMyLAUD8V8X1DUOG4pAC+EfIBJnP6qAR0AikFgHa4f6XUrIfL335UMK9P2VxXgwgXMbhifFPYGD9I/y+qMcBYVT0WSOQEgSIxHqFYD8c93qPUSc8n68khQGQAkJx8xVk5B3kxqctBOdTJfpdjUBkBELSNYn7bziVeDNRxd/k1JPCACjByheOnRJK/SsYUissBOfFlSZnUF9rBDQCQQRAVOTa4DQs/p4rmcPZZ6yYJY0B0AfHHWw/Z+In4FTDtlxyFSuqOp5GIMkIkFQNBjAMu7/nF7nZgWQln1QGQL4DYZr4HDLaZML/SkhkSVZedToagZxEwKIjWnejVAM8fj279AdNA8kCIqkMgDJVtqnxI2T0KXCsM9mmC6BxC3wCKacU8miNHsYkq5FlRDr7mHKgXjFbRdWcdQGyf6sQ/ImKl44cS2bm4/IIFMuHaTVSW53jJ4YZuAFgL4enksW0S0k2BOK02ATFCHC/86vNt7gfubdXVmdDxnUeoyLQgqfthaXCMEeduESnlx3tkQpF5r6w+BtEZ/q6W7jfoHvJDElnAJS5yvrDHZ17Nj2DqcHNKMDNycxwKtOC7pJ4QJli4tPMP7Lak5/HO5TiYGLZ02JSCVCWpl1I+bb8ZbCrUMel6I+SLvmmAhqrQ6KWp1ST4upJsrlJ9ndSwgAok+UXS97rLun/Pnr/MuwlsDZL9hIgzDehg/hPDqHGFQmMVlPR9J/shpfu9BRZzcObNaoTDD47GIDl50+pU2iE3614oSnqHn+J4pkyBsD37w+07tnwopMZG0H8j0MSyM8CV+LEAJbgD/mOB/Xjj6Z9giLrA9VlNlUnET86zyH0/q+68ideTNcUoUAAABH1SURBVFUFpFQUqnrxWBck6O8j8+9l076CltSFTOuz/TBIFSElM11iVNBFE8d6G77+/6XkmZbhZKY/Oa2UMgD60MotTR/g9JRPqlNubRwwGXt9rRGIiIALdIKOsxn6iifLXjjSGDFSkm6mnAHQrIBpqNfA1Z7xSjWaTZJAkjDWyWgEYkbAhbGy11T9Ssmnmc/zeswvJhgx5QyA8lVJfsq5fB5SzYs0JUhTGzpoBDQCUxGgcT8kZbL1f1462AsVrzaMTY2R/F9pYQCU7RUvHD2Kcc33MLL5ldPSriW/MDpFjUC2InC5T+TqZ9jd5yl0mmS+kPKQNgaAAqrxce97XPFvg8ud9hhp+3TKQYznA1TR+oiOQTx42iWuG/RgStUEqviHitoj76erXGmlQlq+6POxn0G58e0JUw46c3AsQDMLOsyOQC7i4wYdgB66MO/8d1jn/1a8vv1nR3PuJ5clj7mjJi9GxwO1ldxgv48UfwfjnrxsMRWeDwIENOy5feC4WNDBT9JOdWjsqO+5A60BjSXe3ClNjTE53cnXFGv679nuTU1x5q9I6UyPRXEQaPGYC2fs3su24VrkAjOgTtAv1RAW+fytn8t/pKlzAiNdYUEYAArHO3fXoqL5H4EQHgIG7iwwEppXnZCCB6bRl9Co/zf8pv3QxfgI9nM1fNK1UHUwr/Ik92UvM4UzkK/4Ur8yH0FP+PuAy8iSJSQJQxEy9sGefuwpyc1vkU+NhBNL8MWUWQLOkR9V/tKR4917av4OlV0CAO4BFTjtzvGpfFhVMGD43S1ladDwzlEHGff4dN22JfmmGqQ1GcQV7dweqHyQfL0o6quY8vs/q14+lhal3/RKT4VkOf0bEX8DALXC2PgJ6QOwq+n7qOyQJBgxug1uWs3ZwN+lwuG31qfYoFBJLYKLBYCLIjNsbvfeP9je+VtYovBPK50bm4gekgpmjIktGAOg/PH6erOzxPML2D19G78O49aCgBAjVvOKFiqYE1MAK4TwW2sN5pWgDV+W0r8UOK0AMVAHaedAy04/hAu9v1tV6nqP6GChCrugDIAKfcMTDf6LQr0MSeDv8PMEDlsyAerRUOlOlK5SMmcxlV2HqQg4lVGCIeFq2vDSlo0gWFwy8z+CtvCtfod6k6P9T0Uhvb8WnAFQcWlTQ9/ikWdQ7/8/fp7BYS3Mp2d2CdSgrWlPzlabzFxul3IlsxzQj5TBCL7Kxt0/6bpPggP8zaXxiZcT2cwzmXhTWhnBACgja59snQiIRU+im/zfoP9zRDB2awhU+2ByFYKJNVRmHa4gcOrearcUqgp3Vlkr4a48sssVVf8ZrPP5/4Yc7NlkuPROBjAZwwCoMJX1B8aZz/1/YC1IwwGLCSSjkJmSBjVsDAUKMee7sa1uy8pMyVcm5GOx27MK4GzEYhhuwylh6s9a4dH3r/uF+n4m9PzhOs8oBkCZogUQhkP9IwYB/4if5+0kBZAeAHO/wJxfb8hAbbgS9JmxAOfAg19PlGLD0IqJzf9Vvsz13UwifsI54xgAZWp5ffOIVxn/CHEZU4TsHBlM2CGEGzdcDG4Ag6PGbo+CzbNyur+8uQD9/jY0xg12sgqlykUdt0Di+5sKUfjPC63wi1RNGckAKKNrXz40ODI28U8QC/8WjeKsXfwIwBoQXJcvRsO45cLuzTWRKiXX7qlLZg1sQW7BghinXcR/WLeSJvsEif0VpZ4nOA1vMzBkLAMgrKAoGRaFxhOYFPprv1ItDkI1y8NlKQAzoIrLe7K8OPPOflvdLXlY/roTMwDbYBM/7/QWOgFqodRMJTz6cMn/J5zjZmTPH8YpoxkAZXLF042jhsGeMpj6nwGpjpEkkO1swJICOCtHc7+nfVfN1nBl5OLZpS5dBzl5J9xgFWW7+E+ET6NVU7JDsGX8qxWlru+Tc9xMrteMZwAEHukEpN/zAxDMn8PD8EcEcjYLA9TPhZjYp7DpwCM0BZbJjSRVeRuqqykGU/8SqOZ6bCWX1SG42It6fvYr1O6+8v5lz2XimH86yFnBACjTNDsAY6EfYQD9J5hOe52kxWxWDlKDBxNbiq3IPpfvdu+ZXjF2//3W9u2OEZPv5pzfjXosyObenwy8kH/q6V/CFPafVTjW/zjTe/5w+8oaBkAZJmOh8mL3W0IZf4Ee9CmI0v5sdipC04IQBa4VQvxmx96N14UrJRfO1xb13ow6fAzi/zU0JMrWQE48obuA7z71XdTlX65wrH9nIW3748UxqxgAFY7EqrLNjR9CdP5rzK1+22/KYaqEbAzU7JF1rBBUN3Ep/lPnng1rsrEc8ea5c++m9SAWcghzIyzjoP/LzkBu7eDerge5/1uo/L/1xKYjn2QT8RPq2Uk5ofbSet/mtU6nWQfjsa+BCVT7IFdnY2OiSsCU0QDmi5/xM/mX6fYKE4IzLaeuXVurlAj8CfQ4dSj34mxU/FN/Q5Kn12Tku/+fmMleXvmjI21pATDJH8lqBkBYtEGRZJj887j8Oo7bMJ7k2TietJgAY73oDp90uJ3fKn3uYCeVz06BiJ+JwDdB9F8C/RRlI7OmWSgoomm8vx/5/06e4f5pKjbtTFe9Zz0DIKBUXY2rM8DvhDT5FQiU96CSiokJZFsDs5iAUn2Mi++bPPD3C+EiKlUN79wDNRud5AeS8zowuawjfqobskPBeL8HLesnnInvjY6Pf5Api3oSrTdbMAAqPIidn3+gZoPT4I/i5y7U1QayGMg2aQD5pqmkSyjDD2EA9UTHOc+hGxoWds044ZtoUJji7Mxz34C6+G2ksRvly4ZNYqcUNzjFB7JXrIkL/rwh5A8wNd0yJVKW/rANAwjj3757fQlnjgdAPI/T/DIaXAEpmbNJGggxAS/K9HMc3+GG853y+oO94TJmyxm7Q5c7lbgTEs3XUB+3o1yubBrzE3GQzQnyPIiRZQOX8jtu5fxpEczUs6UO5sqn7RgAFbgZQ4IiBc26Eo+D+D+DW6tJ25xNxiYhJkDFOQLl4PdNZrzmnRg7lQ0ip4J5b4+8dLWUfBf6zYfh+/xaKkg2ET/1+pAeyTvpaeT7TYGNOsmHZbZp+Qn3aMGWDCBcYGtajTv2Qnb7Eu7VoLB59CxbpAGqHJpqGjcl9ALsLcx2POPg4uOSIkdPJlqZWYzXlDBxNm7G/PIjwPk27AhdnE2zM4S51T44G4Wb2mbF1b9Iw/GjyvrDHdR27BZszQCosrp3bi7wL1J3wsn8w+iNdsAbTxmW4xrZ1BuR5pkaJbaOOgqZ9E2p5KvC42kcHRy6tNASAfLF2b3VrtZCd5Fbsi2whLsfON/lFuIa2vkkm3QwIamLHHS2Q3L8OdafPHNpwvvuQmNM7ThVwfYMIAzchb2b1kmp9mC+/UEUeivapgPnrDJCsbaQksqH0cxBrJ/fryTb7+Ty8Mji8YGq1qpAOs1PFUx5W6taHa6BwlLDUNeBoWKsz7cD762wyRAwkAlDn/FnIgLkFm7pOfQu6iCkl+ecmNsvydK5/XgAzxkGQKBY04VS3AF3zJAG2F24RW65CIOswYEySkYoIDDaR6EJve3bkGoa8Ktp3OlqmWAT4xt7SyXbvl8ma485YMXZPhz7t4ujpb1iMWOFDj+rxjLezVCObcO378DTjZSvLFzSS+N8jPbZOeD5JjZre6a8tvHdZGGHNDM6ZE3DTyaKXXXXlXLT/xA6qT1ouGSDjzaNqywLJLLS8ADMYARN+G0Q5EeGEiek4G1GQHYK6e9ZNlw+zkr3K1YTHNqCkKN2zX8OHP7bvhAQzcCkdzsfXDpYOGJ4Sx3SUYEx8Wo8XQ+KuQk6iZvQ2xfCV0NWKfimVfNFlPJjFPsF5nK9WPFsQ9+057b+mXWNPlm1ofYx0d1cs14G+OPQUn8WZLEelOFMVvrpTmdSRfpRDpIMGjFUOAX+0AIvm33YanOUCWMMpsbjBjYpdXpdAVngN9WEUNyUcFToxI5lPocppRvrEvId3Mhjysw3BSsTSlRDfroaw6ethBMYjx0890yA6I+hnl7DVOXTpS8dPpnuOsuE701qN5mQnfTnofO+bfnM6bsBDfyr+PoOHJUEStRuMv3ZjOuLIHpaYEdFAM1CNmAMjZ1141c3tB49eD4E6WcCylAvXHFhr1IFHSknFYMHcZfizRWIX4Z3y/CbfBXgEm8xyBjWNf5mYUABCBQaOrUBize5kt8JOIeaKuvbM9JdVzogJkxyPqi6OmOAnSn0yYk74MrpNwDIrTiWhxqMXfCh7bdJNUcMwWIMIOsgmwgWlBSiROXWgWsidjqyPoTqEUViPSjkLwHAP3uc7g9+xhpGHqzHUp4cDoSNDiEEyDPPIk/+Esnlbegpfx1ksh29orWPXxYptXV9hhBA3QW5HWP9YHbYg5I/Kfyqoc+tBjLNPfdCVZpmABGQP7u9yuMuzsM2VcY29IGPoJ+8GxruRcQEwrJ1hNf0rQxAgBo0lJM0ZqFVe2Sy+xrq7TnBzabRcX+3nef0E4FfM4AoqJFEkO/MrxKG2gwl2mdB/J+FgUsFvULTXSRT6pAZCNC4xYk/VCeom/O4+Ak4wRumXx4ZdrPzusePXE+aAUTGZcpd9fVtzo7e0bWCObB7jboNK8Luhm//TR4sMPBigQF6minx9Y/0IUDToDA3JnNpks4OgvDfwKzOez6TH60cXHYuncZR6St18r6kGUAcWJIjy2uW9JVDF76F5sCVkrdA2Lx+kUsUkURA1m/4r0OKEaCxvQtUDrpnowGJVZJYqcfU+7BReN+pZONbxrGeXFfuxVoFmgHEitSkeGRD0HF4fRHnBmwHOC18IWOiDThq8x0CE+xBqUAzg0mgzfOSiJ56e7I2HAnICfxsgpL2KCSyT7hDve8bE6dWv9Y0iPuaBceBtWYAcYAVKWpPXU3huBTLYRlDG3xYJrHQDqzBEGEdRFMHMQFaEJNNS5EjlXMh7tGSXOrlSak3YUryj3AWxzkcRyAA7JfSbBIFzj7aPGYh8meHb2oGkKRa/Bh6gpKBiRJ4vCjHirhtkAxuBbjr0B+tQPtdCXdShQQ2MQI9kxAZdODEDOjvqbcna52AqYbxk5bhdqNjP4UnB4SSB0dN3v2x+0ifFvMj4xjPXWqTOiQZAdrvzjAHlzNulGJsWqOkuA3jU9oIFL9hacdYMURZWN9RQ4e8gDP+51ygxkfEjgVFVtmx3NmPi4uwUsL0He/B3UYsNDqACMeUKXt9RSO9tDdEzgGVwgIHkU/hB3I9aVo221V8YaUSxkqHydeaQtbCohbDBVUFBSIWIakCEH8hxrfYH4AYQZAhEG52Ygrhhka0Hpylt4ZG5F13BMcoCjuEB2dxPgTvO0ewbuGsiQVNFa4NnXbzwkN1mykhXC+Zkh/b5+PM/bVlHsFXoZdbBfDXQTLYiPN6kMUqkHw+AHCB8D24R/udXDbFDc80ZgNTCDeqUMcOuqZhD3lkUz7k34tCYQ0CG8Xz8zgfF5Idg53FWamMDm4Ybdno/zBbG264rrI1/1mfb/KVH2CBKkPwCizOWQmlYSUoZi16wtWonDJcu3DtQEHpwEI+y5EJdIy4msYNpv1EhNSFGQ3ncn6wthDLCPGTencT+QzA/h6EzzsxSdoGnnYGw6J2yVUnfDZ2KFOdzdZNNVKHbvpSnlGP6fu0/lIkBAZ2bV06LuQ6rEVYjTX3WJmoSiEdLAOxl4HiSzEexm9WgoP8GwoQvTWMpmscVJ/TD9yaX0CCkwUQ4jN0kJ4OZ2xviseIQ4tqxhGR1tP3YH1xr8Q4nknZj70PsQiHtwWked4tA6dLXzlBbs91yAAEqLHokOEIkEnyYrdnlXSwSijFiCmUg9Dg25AVgwAX4XoRKHARetpCnPNQqbSE1w3y9IAdeHA9mTlQaaPVOxE3hTChU29OircJ3CDRnUT4cZxp7E6EPILrYXChfnACIvQOsKQ2/G4v6y1u05Z4QCiDQ7SGkMHZzs2sgdD4/u3bje3XXOItbUNCFC7xFEpfSUDJcjCDFWAAWL/Pl0KrvhjSA3k5ooPW9xfgeT4YRR6eYcitXKh4DClw93LAU0ZaeOGH9IEonHa8JcInQie/+INIcxjXl7CueBCJXECsbsMlupyusf6LF5m3unKJZAMNkuf4EtvLkOoLjYBGQCOQyQj8X1b4ai9c6GBlAAAAAElFTkSuQmCC;" parent="1" vertex="1">
          <mxGeometry x="-730" y="1270" width="50" height="50" as="geometry" />
        </mxCell>
        <mxCell id="94" value="" style="shape=image;verticalLabelPosition=bottom;labelBackgroundColor=#ffffff;verticalAlign=top;aspect=fixed;imageAspect=0;image=data:image/svg+xml,PHN2ZyB4bWxucz0iaHR0cDovL3d3dy53My5vcmcvMjAwMC9zdmciIHhtbG5zOnhsaW5rPSJodHRwOi8vd3d3LnczLm9yZy8xOTk5L3hsaW5rIiBoZWlnaHQ9IjY0IiB3aWR0aD0iNjQiIHZpZXdCb3g9IjAgMCA2NCA2NCI+PGNsaXBQYXRoIGlkPSJhIj48cGF0aCBkPSJtMjIuOSAxMy42aDI3MS44djI5Ni4yaC0yNzEuOHoiLz48L2NsaXBQYXRoPjxnIHRyYW5zZm9ybT0ibWF0cml4KC4yODM0MjQgMCAwIC4yODM0MjQgLTEzLjA2NDE5MSAzLjIxMzk3MikiPjxwYXRoIGNsaXAtcGF0aD0idXJsKCNhKSIgZD0ibTExNi43IDEwNy42LTE0LjMtOC45LjMgMTMuNiAxNC4zIDguOXptMjAuNiA0Ny42LS4zLTEzLjMtMTIuNS03LjhjLS4yLS4xLS40LS4zLS41LS40bC4zIDEzLjR6bS00NC43IDE3LjktMzIuNy0yMC4zLS44LTM0IDE2LTYuOS0uMy0xMy42LTI1LjYgMTFjLTIgLjktMy4yIDIuNy0zLjEgNC44bDEgNDAuOGMwIDIuMSAxLjMgNC4yIDMuMyA1LjRsMzkuMiAyNC4zYzEuOCAxLjEgNCAxLjQgNS45LjkuMi0uMS40LS4xLjYtLjJsMjQuMS0xMC40LTEzLjEtOC4xeiIgZmlsbD0iI2IzMWFhYiIvPjxwYXRoIGNsaXAtcGF0aD0idXJsKCNhKSIgZD0ibTE5OC4zIDk3LjljLS4xLTIuNC0xLjUtNC45LTMuOS02LjNsLTQ3LjYtMjkuNS0xLjUuNi4zIDE0LjMgMzcuNyAyMy40LjkgMzguMiAxNC40IDguOS44LS4zem0tNTcgNjcuMS00NC4zLTI3LjQtMS4xLTQ2IDIwLjItOC43LS40LTE1LjktMzEuMyAxMy41Yy0yLjMgMS0zLjcgMy4xLTMuNiA1LjZsMS4zIDU0YzAgMi41IDEuNSA0LjkgMy45IDYuM2w1MS45IDMyLjJjMi4xIDEuMyA0LjcgMS43IDYuOSAxIC4yLS4xLjQtLjIuNi0uMmwzMC42LTEzLjItMTUuMi05LjR6IiBmaWxsPSIjZDE2M2NlIi8+PHBhdGggY2xpcC1wYXRoPSJ1cmwoI2EpIiBkPSJtMjY1LjggNjAuMS02Ni41LTQxLjJjLTIuNS0xLjUtNS40LTEuOS03LjktMS4xLS4yLjEtLjUuMi0uNy4zbC02NC45IDI4Yy0yLjYgMS4xLTQuMiAzLjUtNC4xIDYuNGwxLjYgNjkuMmMuMSAyLjggMS44IDUuNiA0LjUgNy4ybDY2LjUgNDEuMmMyLjQgMS41IDUuNCAxLjkgNy45IDEuMS4yLS4xLjUtLjIuNy0uM2w2NC45LTI4YzIuNi0xLjEgNC4yLTMuNiA0LjEtNi40bC0xLjYtNjkuMmMtLjEtMi44LTEuOC01LjUtNC41LTcuMm0tNjcuNiA5NC41LTU3LjgtMzUuOC0xLjQtNjAuMSA1Ni40LTI0LjMgNTcuOCAzNS44IDEuNCA2MC4xeiIgZmlsbD0iI2UxM2VhZiIvPjwvZz48L3N2Zz4=;" parent="1" vertex="1">
          <mxGeometry x="340" y="650" width="55" height="55" as="geometry" />
        </mxCell>
        <mxCell id="95" value="" style="shape=image;verticalLabelPosition=bottom;labelBackgroundColor=#ffffff;verticalAlign=top;aspect=fixed;imageAspect=0;image=data:image/png,iVBORw0KGgoAAAANSUhEUgAAAIAAAACACAMAAAD04JH5AAAAM1BMVEX///9Ga7BGa7BGa7BGa7BGa7BGa7BGa7BGa7BGa7BGa7BGa7BGa7BGa7BGa7BGa7BGa7BKvJRlAAAAEHRSTlMAECAwQFBgcICQoLDA0ODwVOCoyAAAAppJREFUeNrt2NFSwyAQhWG2xpTWNsv7P60ETEgKoVML54wz7rXjfrOjv1jzh+cshjvWGu7YyXDHutFQx7q7oY51bjDM8YCbYY4HuJMhzgy4GuLMAMeMUQAwYxQASjxBADBjFAHEHkeA+zSsCQBmjCKA2OMAYMYoAog9XgEXw5kAYMYoAog9DgBmjCKA2OMEID0OA4AZowgg9jgAmDGKAGKPE4D0OAwAZowigNjjAGDGKAKIPU4A0uMwAJgxigBijwOAGaMIIPY4AUiPwwBgxigCKD2W8wrgxMjaBGD0WPQBgH4cWpcAjBiJbgGEHvvFCUCIkegOgO+x3/sIgD4ORXcAfIz82h0A3WPRPQAeI791DwD3WLQEAD4Of5YmADhGohkA2+NlZwJgYySaA6A9jitzAOpxKJoDoDHyG3MAsMeiBQAyRvPCHIDrseghAPM4nPflAFyMRMsAWI/DuhwAi5HoAQDVY7/tGAB4HIoeAFAxWpblAEyPRY8AoBitu3IApMeidUD3x+G6KgdAYiRaASB6nDblAESMRGsAQI+XRTkAcwLRGgAQI7+nBujeY9EqoH+M/JoqoHePRSsAxAn8liqgd4xE3wbcOhxgA+gcI9EGgGv7AyyA7icQbQKwzQ+wBfTssWgbgBtbH2AD6Bkj0VYANzY+wAbQMUai7QBuaHuADaBfjERbAtyp6QHiD9U49TzB0QFuVzuc0lcNg7Vft6lDjGxldZpM0qzHok9WvyyZfnOA56ufS34ZI51XN/m3ZpVM5n/+50+NVdd29Gt88ZenJWG6xI+rOIT7+SN8PwrBHz7+EaIQpkuLzwk9AX349wlvH75AQB++QEAfvkBAH75AQB++QEAfvkBAH75AQB++QEAfPidM6MN3nG+eafm6q7XzlwAAAABJRU5ErkJggg==;" parent="1" vertex="1">
          <mxGeometry x="-820" y="845" width="50" height="50" as="geometry" />
        </mxCell>
        <mxCell id="96" value="" style="shape=image;verticalLabelPosition=bottom;labelBackgroundColor=#ffffff;verticalAlign=top;aspect=fixed;imageAspect=0;image=data:image/png,iVBORw0KGgoAAAANSUhEUgAAAIAAAACACAMAAAD04JH5AAAAM1BMVEX///9Ga7BGa7BGa7BGa7BGa7BGa7BGa7BGa7BGa7BGa7BGa7BGa7BGa7BGa7BGa7BGa7BKvJRlAAAAEHRSTlMAECAwQFBgcICQoLDA0ODwVOCoyAAAAppJREFUeNrt2NFSwyAQhWG2xpTWNsv7P60ETEgKoVML54wz7rXjfrOjv1jzh+cshjvWGu7YyXDHutFQx7q7oY51bjDM8YCbYY4HuJMhzgy4GuLMAMeMUQAwYxQASjxBADBjFAHEHkeA+zSsCQBmjCKA2OMAYMYoAog9XgEXw5kAYMYoAog9DgBmjCKA2OMEID0OA4AZowgg9jgAmDGKAGKPE4D0OAwAZowigNjjAGDGKAKIPU4A0uMwAJgxigBijwOAGaMIIPY4AUiPwwBgxigCKD2W8wrgxMjaBGD0WPQBgH4cWpcAjBiJbgGEHvvFCUCIkegOgO+x3/sIgD4ORXcAfIz82h0A3WPRPQAeI791DwD3WLQEAD4Of5YmADhGohkA2+NlZwJgYySaA6A9jitzAOpxKJoDoDHyG3MAsMeiBQAyRvPCHIDrseghAPM4nPflAFyMRMsAWI/DuhwAi5HoAQDVY7/tGAB4HIoeAFAxWpblAEyPRY8AoBitu3IApMeidUD3x+G6KgdAYiRaASB6nDblAESMRGsAQI+XRTkAcwLRGgAQI7+nBujeY9EqoH+M/JoqoHePRSsAxAn8liqgd4xE3wbcOhxgA+gcI9EGgGv7AyyA7icQbQKwzQ+wBfTssWgbgBtbH2AD6Bkj0VYANzY+wAbQMUai7QBuaHuADaBfjERbAtyp6QHiD9U49TzB0QFuVzuc0lcNg7Vft6lDjGxldZpM0qzHok9WvyyZfnOA56ufS34ZI51XN/m3ZpVM5n/+50+NVdd29Gt88ZenJWG6xI+rOIT7+SN8PwrBHz7+EaIQpkuLzwk9AX349wlvH75AQB++QEAfvkBAH75AQB++QEAfvkBAH75AQB++QEAfPidM6MN3nG+eafm6q7XzlwAAAABJRU5ErkJggg==;" parent="1" vertex="1">
          <mxGeometry x="-90" y="815" width="50" height="50" as="geometry" />
        </mxCell>
        <mxCell id="97" value="" style="endArrow=none;dashed=1;html=1;dashPattern=1 3;strokeWidth=2;rounded=0;fontSize=12;" parent="1" source="51" target="67" edge="1">
          <mxGeometry width="50" height="50" relative="1" as="geometry">
            <mxPoint x="-315.909090909091" y="675" as="sourcePoint" />
            <mxPoint x="-119.02496289477767" y="749.6801864881877" as="targetPoint" />
          </mxGeometry>
        </mxCell>
        <mxCell id="98" value="ss -tnp | grep 34266&lt;br&gt;ESTAB&amp;nbsp; &amp;nbsp; 0&amp;nbsp; &amp;nbsp; &amp;nbsp; 0&amp;nbsp; &amp;nbsp; 127.0.0.1:15001&amp;nbsp; &amp;nbsp; 192.175.226.153:&lt;font color=&quot;#ff0000&quot;&gt;34266&lt;/font&gt;&amp;nbsp; users:((&quot;envoy&quot;,pid=116413,fd=113))" style="text;whiteSpace=wrap;html=1;fontFamily=Courier New;fontSize=11;fillColor=#EED1FF;strokeColor=none;shadow=1;" parent="1" vertex="1">
          <mxGeometry x="1010" y="220" width="710" height="50" as="geometry" />
        </mxCell>
        <mxCell id="99" value="" style="endArrow=none;dashed=1;html=1;dashPattern=1 3;strokeWidth=2;fontFamily=Courier New;fontSize=11;strokeColor=#B266FF;" parent="1" source="110" target="98" edge="1">
          <mxGeometry width="50" height="50" relative="1" as="geometry">
            <mxPoint x="1120" y="660" as="sourcePoint" />
            <mxPoint x="1170" y="610" as="targetPoint" />
          </mxGeometry>
        </mxCell>
        <mxCell id="100" value="ss -tnp | grep 34266&lt;br&gt;ESTAB&amp;nbsp; &amp;nbsp; 0&amp;nbsp; &amp;nbsp; &amp;nbsp; 0&amp;nbsp; &amp;nbsp; &amp;nbsp; [192.175.226.153]:&lt;font color=&quot;#ff0000&quot;&gt;34266&lt;/font&gt;&amp;nbsp; &amp;nbsp; [192.163.30.16]:6380&amp;nbsp; users:((&quot;java&quot;,pid=121984,fd=697))" style="text;whiteSpace=wrap;html=1;fontFamily=Courier New;fontSize=11;fillColor=#EED1FF;strokeColor=none;shadow=1;" parent="1" vertex="1">
          <mxGeometry x="920" y="490" width="750" height="45" as="geometry" />
        </mxCell>
        <mxCell id="101" value="" style="endArrow=none;dashed=1;html=1;dashPattern=1 3;strokeWidth=2;fontFamily=Courier New;fontSize=11;strokeColor=#B266FF;" parent="1" source="108" target="100" edge="1">
          <mxGeometry width="50" height="50" relative="1" as="geometry">
            <mxPoint x="820.0043832555054" y="927.8465366309865" as="sourcePoint" />
            <mxPoint x="1411.82" y="900" as="targetPoint" />
          </mxGeometry>
        </mxCell>
        <mxCell id="103" value="&lt;span style=&quot;text-align: left ; background-color: rgb(248 , 249 , 250)&quot;&gt;&lt;font color=&quot;#b266ff&quot;&gt;peer&lt;/font&gt;&lt;br&gt;&lt;/span&gt;&lt;font color=&quot;#b266ff&quot;&gt;(redirect dst by iptable)&lt;/font&gt;&lt;span style=&quot;text-align: left ; background-color: rgb(248 , 249 , 250)&quot;&gt;&lt;br&gt;&lt;/span&gt;" style="endArrow=none;dashed=1;html=1;strokeWidth=1;fontFamily=Courier New;fontSize=11;strokeColor=#B266FF;" parent="1" source="100" target="98" edge="1">
          <mxGeometry width="50" height="50" relative="1" as="geometry">
            <mxPoint x="1270" y="490" as="sourcePoint" />
            <mxPoint x="1320" y="440" as="targetPoint" />
          </mxGeometry>
        </mxCell>
        <mxCell id="104" value="&lt;div&gt;ss -tnp | grep 192.163.30.16&lt;/div&gt;&lt;div&gt;ESTAB&amp;nbsp; &amp;nbsp;0&amp;nbsp; &amp;nbsp;0&amp;nbsp; &amp;nbsp; 192.175.226.153:34272&amp;nbsp; &amp;nbsp;192.163.30.16:6380&amp;nbsp; users:((&quot;envoy&quot;,pid=116413,fd=124))&amp;nbsp;&lt;/div&gt;" style="text;whiteSpace=wrap;html=1;fontFamily=Courier New;fontSize=11;fillColor=#EED1FF;strokeColor=none;shadow=1;" parent="1" vertex="1">
          <mxGeometry x="480" y="1260" width="730" height="45" as="geometry" />
        </mxCell>
        <mxCell id="105" value="" style="endArrow=none;dashed=1;html=1;dashPattern=1 3;strokeWidth=2;fontFamily=Courier New;fontSize=11;strokeColor=#B266FF;" parent="1" source="106" target="104" edge="1">
          <mxGeometry width="50" height="50" relative="1" as="geometry">
            <mxPoint x="610" y="1290" as="sourcePoint" />
            <mxPoint x="1231.82" y="1540" as="targetPoint" />
          </mxGeometry>
        </mxCell>
        <mxCell id="106" value="" style="shape=waypoint;sketch=0;fillStyle=solid;size=6;pointerEvents=1;points=[];fillColor=none;resizable=0;rotatable=0;perimeter=centerPerimeter;snapToPoint=1;shadow=1;fontFamily=Courier New;fontSize=11;" parent="1" vertex="1">
          <mxGeometry x="400" y="990" width="40" height="40" as="geometry" />
        </mxCell>
        <mxCell id="107" value="outbound" style="endArrow=none;html=1;rounded=0;jumpStyle=arc;strokeWidth=3;edgeStyle=orthogonalEdgeStyle;strokeColor=#B266FF;" parent="1" source="12" target="106" edge="1">
          <mxGeometry x="-0.1852" y="10" width="50" height="50" relative="1" as="geometry">
            <mxPoint x="420" y="730" as="sourcePoint" />
            <mxPoint x="420" y="1370" as="targetPoint" />
            <Array as="points">
              <mxPoint x="420" y="870" />
              <mxPoint x="420" y="870" />
            </Array>
            <mxPoint as="offset" />
          </mxGeometry>
        </mxCell>
        <mxCell id="108" value="" style="shape=waypoint;sketch=0;fillStyle=solid;size=6;pointerEvents=1;points=[];fillColor=none;resizable=0;rotatable=0;perimeter=centerPerimeter;snapToPoint=1;shadow=1;fontFamily=Courier New;fontSize=11;" parent="1" vertex="1">
          <mxGeometry x="750" y="805" width="40" height="40" as="geometry" />
        </mxCell>
        <mxCell id="109" value="outbound intercepted" style="endArrow=none;html=1;rounded=0;jumpStyle=arc;strokeWidth=3;strokeColor=#B266FF;" parent="1" source="27" target="108" edge="1">
          <mxGeometry width="50" height="50" relative="1" as="geometry">
            <mxPoint x="770" y="1070" as="sourcePoint" />
            <mxPoint x="770" y="685" as="targetPoint" />
          </mxGeometry>
        </mxCell>
        <mxCell id="110" value="" style="shape=waypoint;sketch=0;fillStyle=solid;size=6;pointerEvents=1;points=[];fillColor=none;resizable=0;rotatable=0;perimeter=centerPerimeter;snapToPoint=1;shadow=1;fontFamily=Courier New;fontSize=11;" parent="1" vertex="1">
          <mxGeometry x="605" y="625" width="40" height="40" as="geometry" />
        </mxCell>
        <mxCell id="112" value="" style="endArrow=none;html=1;rounded=0;jumpStyle=arc;strokeWidth=3;strokeColor=#B266FF;" parent="1" source="26" target="110" edge="1">
          <mxGeometry width="50" height="50" relative="1" as="geometry">
            <mxPoint x="710" y="645" as="sourcePoint" />
            <mxPoint x="580" y="645" as="targetPoint" />
          </mxGeometry>
        </mxCell>
        <mxCell id="115" value="" style="shape=waypoint;sketch=0;fillStyle=solid;size=6;pointerEvents=1;points=[];fillColor=none;resizable=0;rotatable=0;perimeter=centerPerimeter;snapToPoint=1;shadow=1;fontFamily=Courier New;fontSize=11;fontColor=#FF0000;" parent="1" vertex="1">
          <mxGeometry x="150" y="575" width="40" height="40" as="geometry" />
        </mxCell>
        <mxCell id="116" value="" style="edgeStyle=none;rounded=0;jumpStyle=arc;orthogonalLoop=1;jettySize=auto;html=1;strokeWidth=3;strokeColor=#00CC00;endArrow=none;" parent="1" source="31" target="115" edge="1">
          <mxGeometry relative="1" as="geometry">
            <mxPoint x="160" y="595" as="sourcePoint" />
            <mxPoint x="240" y="595" as="targetPoint" />
          </mxGeometry>
        </mxCell>
        <mxCell id="119" value="&lt;div&gt;ss -npt sport 15006&lt;/div&gt;&lt;div&gt;State Recv-Q Send-Q&amp;nbsp; Local Address:Port&amp;nbsp; &amp;nbsp;Peer Address:Port&amp;nbsp; &amp;nbsp; &amp;nbsp; &amp;nbsp; &amp;nbsp; &amp;nbsp; &amp;nbsp; &amp;nbsp; &amp;nbsp; &amp;nbsp; &amp;nbsp; &amp;nbsp; &amp;nbsp; &amp;nbsp; &amp;nbsp; &amp;nbsp; &amp;nbsp; &amp;nbsp; &amp;nbsp;&amp;nbsp;&lt;/div&gt;&lt;div&gt;ESTAB&amp;nbsp; &amp;nbsp; 0&amp;nbsp; &amp;nbsp; &amp;nbsp; 0&amp;nbsp; &amp;nbsp;192.175.226.153:15006&amp;nbsp; 192.175.226.179:&lt;font color=&quot;#ff0000&quot;&gt;32802&lt;/font&gt;&amp;nbsp; &amp;nbsp; &amp;nbsp;users:((&quot;envoy&quot;,pid=116413,fd=1468))&lt;/div&gt;" style="text;whiteSpace=wrap;html=1;fontFamily=Courier New;fontSize=11;fillColor=#00FF00;strokeColor=none;shadow=1;" parent="1" vertex="1">
          <mxGeometry x="-580" y="140" width="710" height="50" as="geometry" />
        </mxCell>
        <mxCell id="120" value="&lt;div&gt;ss -npt sport 41435&lt;/div&gt;&lt;div&gt;State&amp;nbsp; &amp;nbsp; &amp;nbsp;Recv-Q&amp;nbsp; Send-Q&amp;nbsp; &amp;nbsp; Local Address:Port&amp;nbsp; &amp;nbsp; &amp;nbsp;Peer Address:Port&amp;nbsp; &amp;nbsp; &amp;nbsp; &amp;nbsp; &amp;nbsp; &amp;nbsp; &amp;nbsp; &amp;nbsp; &amp;nbsp; &amp;nbsp; &amp;nbsp; &amp;nbsp; &amp;nbsp; &amp;nbsp; &amp;nbsp; &amp;nbsp; &amp;nbsp; &amp;nbsp; &amp;nbsp;&amp;nbsp;&lt;/div&gt;&lt;div&gt;ESTAB&amp;nbsp; &amp;nbsp; &amp;nbsp;0&amp;nbsp; &amp;nbsp; &amp;nbsp; &amp;nbsp;0&amp;nbsp; &amp;nbsp; &amp;nbsp; &amp;nbsp; &amp;nbsp; &amp;nbsp; &amp;nbsp;127.0.0.&lt;font color=&quot;#ff0000&quot; size=&quot;1&quot;&gt;&lt;b style=&quot;font-size: 13px&quot;&gt;6&lt;/b&gt;&lt;/font&gt;:41435&amp;nbsp; &amp;nbsp;192.175.226.153:8080&amp;nbsp; users:((&quot;envoy&quot;,pid=116413,fd=821))&lt;/div&gt;" style="text;whiteSpace=wrap;html=1;fontFamily=Courier New;fontSize=11;fillColor=#00FF00;strokeColor=none;shadow=1;" parent="1" vertex="1">
          <mxGeometry x="970" y="790" width="770" height="50" as="geometry" />
        </mxCell>
        <mxCell id="121" value="" style="endArrow=none;dashed=1;html=1;dashPattern=1 3;strokeWidth=2;fontFamily=Courier New;fontSize=11;fontColor=#FF0000;strokeColor=#00CC00;exitX=0.65;exitY=0.425;exitDx=0;exitDy=0;exitPerimeter=0;" parent="1" source="115" target="119" edge="1">
          <mxGeometry width="50" height="50" relative="1" as="geometry">
            <mxPoint x="-100" y="270" as="sourcePoint" />
            <mxPoint x="-50" y="220" as="targetPoint" />
          </mxGeometry>
        </mxCell>
        <mxCell id="122" value="" style="endArrow=none;dashed=1;html=1;dashPattern=1 3;strokeWidth=2;fontFamily=Courier New;fontSize=11;fontColor=#FF0000;strokeColor=#00CC00;" parent="1" source="124" target="120" edge="1">
          <mxGeometry width="50" height="50" relative="1" as="geometry">
            <mxPoint x="1410" y="1635" as="sourcePoint" />
            <mxPoint x="852.34375" y="1245" as="targetPoint" />
          </mxGeometry>
        </mxCell>
        <mxCell id="124" value="127.0.0&lt;font color=&quot;#ff0000&quot;&gt;.6&lt;/font&gt;" style="shape=waypoint;sketch=0;fillStyle=solid;size=6;pointerEvents=1;points=[];fillColor=none;resizable=0;rotatable=0;perimeter=centerPerimeter;snapToPoint=1;shadow=1;fontFamily=Courier New;fontSize=11;fontColor=#000000;labelPosition=center;verticalLabelPosition=bottom;align=center;verticalAlign=top;html=1;" parent="1" vertex="1">
          <mxGeometry x="500" y="845" width="40" height="40" as="geometry" />
        </mxCell>
        <mxCell id="125" value="" style="endArrow=none;html=1;rounded=0;jumpStyle=arc;strokeWidth=3;strokeColor=#00CC00;" parent="1" source="12" target="124" edge="1">
          <mxGeometry width="50" height="50" relative="1" as="geometry">
            <mxPoint x="427.1999999999998" y="730" as="sourcePoint" />
            <mxPoint x="646.5653496787554" y="1052.5961024687576" as="targetPoint" />
          </mxGeometry>
        </mxCell>
        <mxCell id="126" value="&lt;div&gt;ss -npt dport 41435&lt;/div&gt;&lt;div&gt;State&amp;nbsp; &amp;nbsp;Recv-Q&amp;nbsp; &amp;nbsp; &amp;nbsp; Send-Q&amp;nbsp; &amp;nbsp; &amp;nbsp; &amp;nbsp; &amp;nbsp; &amp;nbsp; &amp;nbsp; &amp;nbsp;Local Address:Port&amp;nbsp; &amp;nbsp; &amp;nbsp; &amp;nbsp; &amp;nbsp; &amp;nbsp;Peer Address:Port&amp;nbsp;&lt;/div&gt;&lt;div&gt;ESTAB&amp;nbsp; &amp;nbsp;0&amp;nbsp; &amp;nbsp; &amp;nbsp; &amp;nbsp; &amp;nbsp; &amp;nbsp;0&amp;nbsp; &amp;nbsp; &amp;nbsp; &amp;nbsp; &amp;nbsp; &amp;nbsp;[::ffff:192.175.226.153]:8080&amp;nbsp; &amp;nbsp; &amp;nbsp;[::ffff:127.0.0.6]:41435&amp;nbsp; &amp;nbsp; users:((&quot;java&quot;,pid=121984,fd=1292))&lt;/div&gt;" style="text;whiteSpace=wrap;html=1;fontFamily=Courier New;fontSize=11;fillColor=#00FF00;strokeColor=none;shadow=1;" parent="1" vertex="1">
          <mxGeometry x="970" y="885" width="880" height="50" as="geometry" />
        </mxCell>
        <mxCell id="127" value="" style="endArrow=none;dashed=1;html=1;dashPattern=1 3;strokeWidth=2;fontFamily=Courier New;fontSize=11;fontColor=#FF0000;strokeColor=#00CC00;" parent="1" source="6" target="126" edge="1">
          <mxGeometry width="50" height="50" relative="1" as="geometry">
            <mxPoint x="520" y="980" as="sourcePoint" />
            <mxPoint x="852.34375" y="1360" as="targetPoint" />
          </mxGeometry>
        </mxCell>
        <mxCell id="130" value="&lt;div&gt;ss -npt dport 8080&lt;/div&gt;&lt;div&gt;State Recv-Q Send-Q&amp;nbsp; Local Address:Port&amp;nbsp; &amp;nbsp; &amp;nbsp;Peer Address:Port&amp;nbsp; &amp;nbsp; &amp;nbsp; &amp;nbsp; &amp;nbsp; &amp;nbsp; &amp;nbsp; &amp;nbsp; &amp;nbsp; &amp;nbsp; &amp;nbsp; &amp;nbsp; &amp;nbsp; &amp;nbsp; &amp;nbsp; &amp;nbsp; &amp;nbsp; &amp;nbsp; &amp;nbsp;&amp;nbsp;&lt;/div&gt;&lt;div&gt;ESTAB&amp;nbsp; &amp;nbsp; 0&amp;nbsp; &amp;nbsp; &amp;nbsp; 0&amp;nbsp; &amp;nbsp; 192.175.226.179:&lt;font color=&quot;#ff0000&quot;&gt;32802&lt;/font&gt;&amp;nbsp; 192.175.226.153:8080&lt;/div&gt;" style="text;whiteSpace=wrap;html=1;fontFamily=Courier New;fontSize=11;fillColor=#00FF00;strokeColor=none;shadow=1;" parent="1" vertex="1">
          <mxGeometry x="-295" y="-10" width="710" height="50" as="geometry" />
        </mxCell>
        <mxCell id="131" value="" style="endArrow=none;dashed=1;html=1;dashPattern=1 3;strokeWidth=2;fontFamily=Courier New;fontSize=11;fontColor=#FF0000;strokeColor=#00CC00;" parent="1" source="132" target="130" edge="1">
          <mxGeometry width="50" height="50" relative="1" as="geometry">
            <mxPoint x="350" y="295" as="sourcePoint" />
            <mxPoint x="130" y="-80" as="targetPoint" />
          </mxGeometry>
        </mxCell>
        <mxCell id="132" value="" style="shape=waypoint;sketch=0;fillStyle=solid;size=6;pointerEvents=1;points=[];fillColor=none;resizable=0;rotatable=0;perimeter=centerPerimeter;snapToPoint=1;shadow=1;fontFamily=Courier New;fontSize=11;fontColor=#FF0000;" parent="1" vertex="1">
          <mxGeometry x="345" y="270" width="40" height="40" as="geometry" />
        </mxCell>
        <mxCell id="133" value="" style="endArrow=none;html=1;rounded=0;jumpStyle=arc;strokeWidth=3;strokeColor=#00CC00;" parent="1" source="37" target="132" edge="1">
          <mxGeometry width="50" height="50" relative="1" as="geometry">
            <mxPoint x="365" y="270" as="sourcePoint" />
            <mxPoint x="365" y="420" as="targetPoint" />
          </mxGeometry>
        </mxCell>
        <mxCell id="134" value="$ iptables-save&lt;br&gt;&lt;br&gt;# Generated by iptables-save v1.8.7 on Fri Dec 16 16:18:31 2022&lt;br&gt;*nat&lt;br&gt;:PREROUTING ACCEPT [104490:5433496]&lt;br&gt;:INPUT ACCEPT [105123:5471476]&lt;br&gt;:OUTPUT ACCEPT [24745:1633905]&lt;br&gt;:POSTROUTING ACCEPT [42627:2706825]&lt;br&gt;:ISTIO_INBOUND - [0:0]&lt;br&gt;:ISTIO_IN_REDIRECT - [0:0]&lt;br&gt;:ISTIO_OUTPUT - [0:0]&lt;br&gt;:ISTIO_REDIRECT - [0:0]&lt;br&gt;-A PREROUTING -p tcp -j ISTIO_INBOUND&lt;br&gt;-A OUTPUT -p tcp -j ISTIO_OUTPUT&lt;br&gt;-A ISTIO_INBOUND -p tcp -m tcp --dport 15008 -j RETURN&lt;br&gt;-A ISTIO_INBOUND -p tcp -m tcp --dport 15090 -j RETURN&lt;br&gt;-A ISTIO_INBOUND -p tcp -m tcp --dport 15021 -j RETURN&lt;br&gt;-A ISTIO_INBOUND -p tcp -m tcp --dport 15020 -j RETURN&lt;br&gt;-A ISTIO_INBOUND -p tcp -j ISTIO_IN_REDIRECT&lt;br&gt;-A ISTIO_IN_REDIRECT -p tcp -j REDIRECT --to-ports 15006&lt;br&gt;-A ISTIO_OUTPUT -s 127.0.0.&lt;font color=&quot;#ff0000&quot; style=&quot;font-size: 15px&quot;&gt;6&lt;/font&gt;/32 -o lo -j RETURN&lt;br&gt;-A ISTIO_OUTPUT ! -d 127.0.0.1/32 -o lo -m owner --uid-owner 201507 -j ISTIO_IN_REDIRECT&lt;br&gt;-A ISTIO_OUTPUT -o lo -m owner ! --uid-owner 201507 -j RETURN&lt;br&gt;-A ISTIO_OUTPUT -m owner --uid-owner 201507 -j RETURN&lt;br&gt;-A ISTIO_OUTPUT ! -d 127.0.0.1/32 -o lo -m owner --gid-owner 201507 -j ISTIO_IN_REDIRECT&lt;br&gt;-A ISTIO_OUTPUT -o lo -m owner ! --gid-owner 201507 -j RETURN&lt;br&gt;-A ISTIO_OUTPUT -m owner --gid-owner 201507 -j RETURN&lt;br&gt;-A ISTIO_OUTPUT -d 127.0.0.1/32 -j RETURN&lt;br&gt;-A ISTIO_OUTPUT -j ISTIO_REDIRECT&lt;br&gt;-A ISTIO_REDIRECT -p tcp -j REDIRECT --to-ports 15001&lt;br&gt;COMMIT" style="text;whiteSpace=wrap;html=1;fontSize=13;fontFamily=Courier New;fillColor=#fff2cc;strokeColor=none;shadow=1;" parent="1" vertex="1">
          <mxGeometry x="-1230" y="-610" width="610" height="530" as="geometry" />
        </mxCell>
        <mxCell id="135" value="Why the bind magic 127.0.0.6 ?&lt;br&gt;&lt;br&gt;- &lt;a href=&quot;https://github.com/istio/istio/issues/29603&quot;&gt;Document the 127.0.0.6 magic #29603&lt;/a&gt;&lt;br&gt;-&amp;nbsp;&lt;a href=&quot;https://docs.google.com/document/d/1j-5_XpeMTnT9mV_8dbSOeU7rfH-5YNtN_JJFZ2mmQ_w/edit#heading=h.xw1gqgyqs5b&quot;&gt;Inbound Forwarding&lt;/a&gt;&lt;br&gt;-&amp;nbsp;&lt;a href=&quot;https://jimmysong.io/en/blog/sidecar-injection-iptables-and-traffic-routing/&quot;&gt;Understanding the Sidecar Injection, Traffic Intercepting &amp;amp; Routing Process in Istio&lt;/a&gt;&lt;br&gt;-&amp;nbsp;&lt;a href=&quot;https://istio.io/latest/blog/2021/upcoming-networking-changes/&quot;&gt;Upcoming networking changes in Istio 1.10&lt;/a&gt;" style="text;whiteSpace=wrap;html=1;fontSize=13;fontFamily=Courier New;fillColor=#fff2cc;strokeColor=none;shadow=1;" parent="1" vertex="1">
          <mxGeometry x="-550" y="-610" width="740" height="110" as="geometry" />
        </mxCell>
        <mxCell id="136" value="sudo tcpdump -i lo -n -vvvv -A &quot;(dst port 8080 and dst $ETH0_IP) or (src port 8080 and src $ETH0_IP)&quot;" style="text;whiteSpace=wrap;html=1;fontFamily=Courier New;fontSize=11;fillColor=#00FF00;strokeColor=none;shadow=1;rounded=1;glass=0;sketch=0;" parent="1" vertex="1">
          <mxGeometry x="1170" y="650" width="470" height="40" as="geometry" />
        </mxCell>
        <mxCell id="139" value="sudo tcpdump -i eth0 -n -vvvv&amp;nbsp; &quot;(dst port 8080 and dst $ETH0_IP&lt;br&gt;) or (src port 8080 and src $ETH0_IP&amp;nbsp;)&quot;" style="text;whiteSpace=wrap;html=1;fontFamily=Courier New;fontSize=11;fillColor=#00FF00;strokeColor=none;shadow=1;rounded=1;" parent="1" vertex="1">
          <mxGeometry x="-1070" y="80" width="470" height="40" as="geometry" />
        </mxCell>
        <mxCell id="141" value="sudo tcpdump -i lo -n -vvvv -A&amp;nbsp; &quot;((dst port 15001 and dst 127.0.0.1) or (dst portrange 20000-65535 and dst $ETH0_IP))&quot;&lt;br&gt;&lt;br&gt;#&amp;nbsp;⚠️ outbound packet redirected, inbound packet non-redirected: result:&amp;nbsp;&lt;br&gt;&lt;b&gt;Wireshark follow TCP Stream failed.&lt;/b&gt;" style="text;whiteSpace=wrap;html=1;fontFamily=Courier New;fontSize=11;fillColor=#EED1FF;strokeColor=none;shadow=1;" parent="1" vertex="1">
          <mxGeometry x="900" y="120" width="590" height="80" as="geometry" />
        </mxCell>
        <mxCell id="144" value="&lt;font color=&quot;#00ff00&quot;&gt;peer&lt;/font&gt;" style="endArrow=none;dashed=1;html=1;dashPattern=1 3;strokeWidth=2;fontFamily=Courier New;fontSize=11;fontColor=#FF0000;strokeColor=#00CC00;" parent="1" source="119" target="130" edge="1">
          <mxGeometry width="50" height="50" relative="1" as="geometry">
            <mxPoint x="375" y="300" as="sourcePoint" />
            <mxPoint x="97.72727272727252" y="50" as="targetPoint" />
          </mxGeometry>
        </mxCell>
        <mxCell id="145" value="&lt;font color=&quot;#00cc00&quot;&gt;peer&lt;/font&gt;" style="endArrow=none;dashed=1;html=1;dashPattern=1 3;strokeWidth=2;fontFamily=Courier New;fontSize=11;fontColor=#FF0000;strokeColor=#00CC00;" parent="1" source="126" target="120" edge="1">
          <mxGeometry width="50" height="50" relative="1" as="geometry">
            <mxPoint x="1260" y="860" as="sourcePoint" />
            <mxPoint x="1423.0769230769229" y="780" as="targetPoint" />
          </mxGeometry>
        </mxCell>
        <mxCell id="146" value="sudo tcpdump -i eth0 -n -vvvv -A&amp;nbsp; &quot;((src portrange 20000-65535 and src $ETH0_IP) or (dst portrange 20000-65535 and dst 192.175.226.153))&quot;" style="text;whiteSpace=wrap;html=1;fontFamily=Courier New;fontSize=11;fillColor=#EED1FF;strokeColor=none;shadow=1;glass=0;rounded=1;sketch=0;" parent="1" vertex="1">
          <mxGeometry x="1040" y="1390" width="850" height="45" as="geometry" />
        </mxCell>
        <mxCell id="147" value="" style="endArrow=none;dashed=1;html=1;dashPattern=1 3;strokeWidth=2;fontFamily=Courier New;fontSize=11;strokeColor=#B266FF;" parent="1" source="106" target="146" edge="1">
          <mxGeometry width="50" height="50" relative="1" as="geometry">
            <mxPoint x="1079.855348837209" y="1340" as="sourcePoint" />
            <mxPoint x="895.284817518248" y="1585" as="targetPoint" />
          </mxGeometry>
        </mxCell>
        <mxCell id="151" value="" style="sketch=0;pointerEvents=1;shadow=0;dashed=0;html=1;strokeColor=none;labelPosition=center;verticalLabelPosition=bottom;verticalAlign=top;outlineConnect=0;align=center;shape=mxgraph.office.security.lock_protected;fillColor=#FF8000;rounded=1;glass=0;fontFamily=Courier New;fontSize=15;fontColor=#B266FF;" parent="1" vertex="1">
          <mxGeometry x="320" y="340" width="20" height="30" as="geometry" />
        </mxCell>
        <mxCell id="152" value="" style="sketch=0;pointerEvents=1;shadow=0;dashed=0;html=1;strokeColor=none;labelPosition=center;verticalLabelPosition=bottom;verticalAlign=top;outlineConnect=0;align=center;shape=mxgraph.office.security.lock_protected;fillColor=#FF8000;rounded=1;glass=0;fontFamily=Courier New;fontSize=15;fontColor=#B266FF;" parent="1" vertex="1">
          <mxGeometry x="245" y="545" width="20" height="30" as="geometry" />
        </mxCell>
        <mxCell id="153" value="" style="sketch=0;pointerEvents=1;shadow=0;dashed=0;html=1;strokeColor=none;labelPosition=center;verticalLabelPosition=bottom;verticalAlign=top;outlineConnect=0;align=center;shape=mxgraph.office.security.lock_protected;fillColor=#FF8000;rounded=1;glass=0;fontFamily=Courier New;fontSize=15;fontColor=#B266FF;" parent="1" vertex="1">
          <mxGeometry x="395" y="1270" width="20" height="30" as="geometry" />
        </mxCell>
        <UserObject label="&lt;b style=&quot;font-size: 14px&quot;&gt;tcpdump capture pinpoint:&lt;br&gt;&lt;/b&gt;&lt;br&gt;tcpdump will see inbound traffic before iptables, but will see &lt;br&gt;outbound traffic only after the firewall has processed it.&lt;br&gt;&lt;br&gt;&lt;div&gt;As a matter of fact, tcpdump is the first software found after the wire (and the NIC, if you will) on the way IN, and the last one on the way OUT.&lt;/div&gt;&lt;div&gt;&lt;br&gt;&lt;/div&gt;&lt;div&gt;* Wire -&amp;gt; NIC -&amp;gt; tcpdump -&amp;gt; netfilter/iptables&lt;/div&gt;&lt;div&gt;* iptables -&amp;gt; tcpdump -&amp;gt; NIC -&amp;gt; Wire&lt;/div&gt;" link="https://superuser.com/questions/925286/does-tcpdump-bypass-iptables" id="154">
          <mxCell style="text;whiteSpace=wrap;html=1;fontSize=13;fontFamily=Courier New;fillColor=#fff2cc;strokeColor=none;shadow=1;fontStyle=2" parent="1" vertex="1">
            <mxGeometry x="-540" y="-380" width="740" height="170" as="geometry" />
          </mxCell>
        </UserObject>
        <mxCell id="155" value="" style="shape=waypoint;sketch=0;fillStyle=solid;size=6;pointerEvents=1;points=[];fillColor=none;resizable=0;rotatable=0;perimeter=centerPerimeter;snapToPoint=1;rounded=1;shadow=1;glass=0;fontFamily=Courier New;fontSize=14;fontColor=#B266FF;" parent="1" vertex="1">
          <mxGeometry x="250" y="510" width="40" height="40" as="geometry" />
        </mxCell>
        <mxCell id="156" value="" style="endArrow=none;html=1;rounded=0;jumpStyle=arc;strokeWidth=3;strokeColor=#00CC00;startArrow=none;exitX=0.5;exitY=0;exitDx=0;exitDy=0;" parent="1" source="2" target="155" edge="1">
          <mxGeometry width="50" height="50" relative="1" as="geometry">
            <mxPoint x="360" y="510" as="sourcePoint" />
            <mxPoint x="60" y="580.8333333333335" as="targetPoint" />
          </mxGeometry>
        </mxCell>
        <mxCell id="157" value="" style="sketch=0;pointerEvents=1;shadow=0;dashed=0;html=1;strokeColor=none;labelPosition=center;verticalLabelPosition=bottom;verticalAlign=top;outlineConnect=0;align=center;shape=mxgraph.office.security.lock_protected;fillColor=#FF8000;rounded=1;glass=0;fontFamily=Courier New;fontSize=15;fontColor=#B266FF;" parent="1" vertex="1">
          <mxGeometry x="280" y="490" width="20" height="30" as="geometry" />
        </mxCell>
        <mxCell id="159" value="" style="sketch=0;pointerEvents=1;shadow=0;dashed=0;html=1;strokeColor=none;labelPosition=center;verticalLabelPosition=bottom;verticalAlign=top;align=center;fillColor=#505050;shape=mxgraph.mscae.oms.log_search" parent="1" vertex="1">
          <mxGeometry x="110" y="-370" width="30" height="30" as="geometry" />
        </mxCell>
        <mxCell id="160" value="" style="sketch=0;pointerEvents=1;shadow=0;dashed=0;html=1;strokeColor=none;labelPosition=center;verticalLabelPosition=bottom;verticalAlign=top;align=center;fillColor=#505050;shape=mxgraph.mscae.oms.log_search" parent="1" vertex="1">
          <mxGeometry x="-645" y="85" width="30" height="30" as="geometry" />
        </mxCell>
        <mxCell id="161" value="" style="endArrow=none;dashed=1;html=1;dashPattern=1 3;strokeWidth=2;fontFamily=Courier New;fontSize=11;fontColor=#FF0000;strokeColor=#00CC00;" parent="1" source="155" target="139" edge="1">
          <mxGeometry width="50" height="50" relative="1" as="geometry">
            <mxPoint x="270" y="530" as="sourcePoint" />
            <mxPoint x="-880" y="200" as="targetPoint" />
          </mxGeometry>
        </mxCell>
        <mxCell id="162" value="" style="sketch=0;pointerEvents=1;shadow=0;dashed=0;html=1;strokeColor=none;labelPosition=center;verticalLabelPosition=bottom;verticalAlign=top;align=center;fillColor=#505050;shape=mxgraph.mscae.oms.log_search" parent="1" vertex="1">
          <mxGeometry x="1440" y="140" width="30" height="30" as="geometry" />
        </mxCell>
        <mxCell id="163" value="" style="endArrow=none;dashed=1;html=1;dashPattern=1 3;strokeWidth=2;fontFamily=Courier New;fontSize=11;strokeColor=#B266FF;" parent="1" source="110" target="141" edge="1">
          <mxGeometry width="50" height="50" relative="1" as="geometry">
            <mxPoint x="625" y="645" as="sourcePoint" />
            <mxPoint x="1045.2985074626868" y="165" as="targetPoint" />
          </mxGeometry>
        </mxCell>
        <mxCell id="164" value="" style="sketch=0;pointerEvents=1;shadow=0;dashed=0;html=1;strokeColor=none;labelPosition=center;verticalLabelPosition=bottom;verticalAlign=top;align=center;fillColor=#505050;shape=mxgraph.mscae.oms.log_search" parent="1" vertex="1">
          <mxGeometry x="1610" y="660" width="30" height="30" as="geometry" />
        </mxCell>
        <mxCell id="165" value="" style="endArrow=none;dashed=1;html=1;dashPattern=1 3;strokeWidth=2;fontFamily=Courier New;fontSize=11;fontColor=#FF0000;strokeColor=#00CC00;labelPosition=center;verticalLabelPosition=bottom;align=center;verticalAlign=top;" parent="1" source="124" target="136" edge="1">
          <mxGeometry width="50" height="50" relative="1" as="geometry">
            <mxPoint x="520" y="865" as="sourcePoint" />
            <mxPoint x="1314.2307692307695" y="690" as="targetPoint" />
          </mxGeometry>
        </mxCell>
        <mxCell id="167" value="" style="shape=mxgraph.signs.safety.radiation;html=1;pointerEvents=1;fillColor=#FF3333;strokeColor=none;verticalLabelPosition=bottom;verticalAlign=top;align=center;" parent="1" vertex="1">
          <mxGeometry x="1398" y="140" width="42" height="34" as="geometry" />
        </mxCell>
      </root>
    </mxGraphModel>
  </diagram>
</mxfile>
